<svg width="17" height="16" viewBox="0 0 17 16" fill="none" xmlns="http://www.w3.org/2000/svg">
<rect x="0.446777" y="0.227051" width="2.86498" height="2.86498" fill="#C5C6C7"/>
<rect x="4.74414" y="0.227051" width="2.86498" height="2.86498" fill="#C5C6C7"/>
<rect x="9.04272" y="0.227051" width="2.86498" height="2.86498" fill="#C5C6C7"/>
<rect x="13.3398" y="0.227051" width="2.86498" height="2.86498" fill="#C5C6C7"/>
<rect x="0.447021" y="4.52441" width="2.86498" height="2.86498" fill="#C5C6C7"/>
<rect x="0.447021" y="8.82178" width="2.86498" height="2.86498" fill="#C5C6C7"/>
<rect x="0.447021" y="13.1191" width="2.86498" height="2.86498" fill="#C5C6C7"/>
<rect x="4.74414" y="4.52441" width="2.86498" height="2.86498" fill="#C5C6C7"/>
<rect x="4.74414" y="8.82178" width="2.86498" height="2.86498" fill="#C5C6C7"/>
<rect x="4.74414" y="13.1191" width="2.86498" height="2.86498" fill="#C5C6C7"/>
<rect x="9.04272" y="4.52441" width="2.86498" height="2.86498" fill="#C5C6C7"/>
<rect x="9.04272" y="8.82178" width="2.86498" height="2.86498" fill="#C5C6C7"/>
<rect x="9.04272" y="13.1191" width="2.86498" height="2.86498" fill="#C5C6C7"/>
<rect x="13.3398" y="4.52441" width="2.86498" height="2.86498" fill="#C5C6C7"/>
<rect x="13.3398" y="8.82178" width="2.86498" height="2.86498" fill="#C5C6C7"/>
<rect x="13.3398" y="13.1191" width="2.86498" height="2.86498" fill="#C5C6C7"/>
</svg>
