<svg width="20" height="20" viewBox="0 0 20 20" fill="none" xmlns="http://www.w3.org/2000/svg">
<path d="M3.90897 11.4387C3.97272 11.1812 4.02306 10.9191 4.10331 10.6667C4.20621 10.3432 4.38768 10.06 4.58845 9.78943C5.08534 9.11733 5.30596 8.36175 5.24388 7.52325C5.12728 5.95152 5.99131 4.4279 7.40814 3.70543C8.30401 3.24502 9.33103 3.11707 10.3105 3.34385C11.2899 3.57063 12.1598 4.13779 12.7688 4.94662C13.1966 5.51487 13.7404 5.87766 14.4082 6.10688C15.9917 6.64683 16.932 7.77652 17.1806 9.44334C17.4292 11.1101 16.5585 12.8503 15.0924 13.7105C14.235 14.2111 13.4826 14.8767 12.8778 15.6697C12.4399 16.2413 11.8541 16.573 11.1442 16.6754C11.1148 16.6818 11.0859 16.6902 11.0578 16.7006H10.4857C10.4674 16.6901 10.4478 16.6822 10.4275 16.6768C9.84029 16.5979 9.33278 16.3514 8.9209 15.9244C8.30965 15.2908 7.56949 14.9792 6.70378 14.8796C5.39124 14.7285 4.50792 13.9913 4.06388 12.7305C3.98922 12.5189 3.9593 12.2908 3.90869 12.0701L3.90897 11.4387ZM9.31041 3.67288C9.13928 3.69071 8.91754 3.70118 8.70083 3.73882C6.89895 4.06313 5.55985 5.59891 5.69463 7.53655C5.70967 7.8078 5.69768 8.0799 5.65884 8.34873C5.5702 9.01885 5.28806 9.60634 4.88904 10.1466C4.39132 10.8204 4.23669 11.5796 4.43186 12.3972C4.70533 13.543 5.65073 14.3388 6.75607 14.4347C7.70035 14.5174 8.51041 14.87 9.18151 15.5503C10.1781 16.56 11.6925 16.4722 12.5602 15.3462C13.1862 14.5306 13.9629 13.846 14.8472 13.3305C16.1997 12.5381 16.9692 10.9726 16.7243 9.43824C16.4891 7.96443 15.6357 6.9867 14.2373 6.52344C13.5103 6.28149 12.9156 5.87709 12.4478 5.26414C11.6679 4.24622 10.6288 3.72863 9.31041 3.67288Z" fill="#61676A"/>
<path d="M12.7834 9.52767C12.7803 10.301 12.4744 11.0415 11.9328 11.5868C11.3911 12.1322 10.6578 12.438 9.89376 12.4371C8.2879 12.4328 7.00388 11.1161 7.01003 9.47956C7.0159 7.89227 8.32425 6.59306 9.91557 6.59872C11.5019 6.60268 12.7864 7.91576 12.7834 9.52767ZM7.46525 9.50928C7.45686 10.873 8.54822 11.9812 9.90466 11.9857C11.2158 11.99 12.3251 10.8838 12.334 9.56248C12.3432 8.18007 11.2714 7.05886 9.93151 7.04669C9.60935 7.04284 9.28964 7.10366 8.99086 7.22564C8.69208 7.34762 8.42015 7.52833 8.19081 7.75733C7.96147 7.98633 7.77926 8.25907 7.65472 8.55979C7.53018 8.8605 7.46578 9.18322 7.46525 9.50928Z" fill="#61676A"/>
<path d="M9.83014 7.4941C9.84747 7.4941 9.86481 7.4941 9.88186 7.4941C10.0217 7.49862 10.119 7.5889 10.1207 7.71681C10.1223 7.84472 10.0401 7.935 9.90088 7.9432C9.56534 7.96075 9.24657 8.03857 8.98484 8.25817C8.83413 8.38467 8.70522 8.54116 8.58163 8.6968C8.47705 8.82811 8.36772 8.87509 8.2514 8.80349C8.13508 8.7319 8.11159 8.59521 8.20358 8.44919C8.58471 7.8501 9.13472 7.54503 9.83014 7.4941Z" fill="#61676A"/>
<path d="M8.36202 9.65247C8.35475 9.71275 8.35894 9.77699 8.33797 9.83189C8.30162 9.92697 8.22276 9.97112 8.12098 9.96404C8.07257 9.96301 8.02606 9.94483 7.98953 9.91267C7.953 9.88051 7.92877 9.8364 7.92106 9.78802C7.90427 9.69748 7.89808 9.60525 7.9026 9.51324C7.90295 9.45549 7.92509 9.40007 7.96449 9.3583C8.00389 9.31653 8.05757 9.29157 8.11455 9.28854C8.17145 9.28784 8.22661 9.30842 8.26944 9.34634C8.31227 9.38425 8.33975 9.43683 8.34664 9.49399C8.35088 9.54634 8.35135 9.59893 8.34804 9.65134L8.36202 9.65247Z" fill="#61676A"/>
</svg>
