<svg width="13" height="15" viewBox="0 0 13 15" fill="none" xmlns="http://www.w3.org/2000/svg">
<path d="M4.67218 14.2974C3.56722 14.0848 2.84613 13.341 2.21552 12.4911C1.45612 11.468 0.911003 10.3367 0.67619 9.07712C0.40696 7.63077 0.653153 6.28518 1.57214 5.10251C1.89862 4.68124 2.31462 4.33776 2.79006 4.09692C2.80852 4.08727 2.82632 4.07642 2.84335 4.06444C2.71595 3.70223 2.5658 3.35973 2.47559 3.00168C2.2924 2.27226 2.30434 1.53063 2.40759 0.787884C2.42785 0.643277 2.51389 0.552239 2.65961 0.532532C3.53253 0.414293 4.39906 0.42151 5.24561 0.697401C6.09216 0.973293 6.68641 1.51592 7.00504 2.35275C7.01476 2.37773 7.02753 2.40188 7.05001 2.45073C7.08748 2.36746 7.11523 2.3014 7.14715 2.23729C7.60623 1.31025 8.31289 0.633563 9.23466 0.175872C9.25547 0.165602 9.27657 0.156443 9.29766 0.148116C9.47058 0.0762287 9.63073 0.128409 9.69402 0.278567C9.7573 0.428725 9.69096 0.564451 9.53026 0.652992C9.31265 0.772897 9.08922 0.886695 8.88771 1.03019C7.99953 1.66385 7.45968 2.51873 7.31174 3.60759C7.29509 3.72916 7.30952 3.85489 7.30952 3.99034C7.56959 3.93483 7.82273 3.86738 8.07974 3.8238C9.82141 3.53348 11.2553 4.28288 12.0383 5.88633C12.3027 6.43103 12.4633 7.02027 12.5118 7.62383C12.5137 7.64576 12.5315 7.86115 12.532 8.07931C12.532 8.30635 12.5151 8.53644 12.5134 8.55448C12.4579 9.1504 12.3044 9.72328 12.0916 10.2803C11.6588 11.4117 11.0621 12.4419 10.1983 13.3024C9.80615 13.6929 9.36899 14.0199 8.8347 14.1944C8.71368 14.2339 8.58906 14.2624 8.4661 14.2963H7.91099C7.55266 14.2214 7.19517 14.1398 6.83518 14.0743C6.6909 14.044 6.54252 14.0383 6.39636 14.0576C5.99446 14.1251 5.59644 14.2147 5.19704 14.2957L4.67218 14.2974ZM8.84164 4.30037C8.88993 4.34256 8.91158 4.36421 8.93573 4.38225C9.48716 4.78365 9.92669 5.3195 10.2125 5.93879C10.9031 7.41955 10.7918 8.9031 10.2072 10.3833C10.183 10.4494 10.1337 10.5033 10.07 10.5332C10.0062 10.5631 9.93323 10.5666 9.86693 10.5429C9.72288 10.4938 9.64766 10.3533 9.68985 10.1985C9.71289 10.1152 9.74814 10.0319 9.77812 9.95087C10.1512 8.92807 10.2658 7.88835 9.95853 6.82808C9.67431 5.84719 9.12086 5.07142 8.20631 4.57792C8.0048 4.46912 7.80469 4.40223 7.57848 4.49965C7.52305 4.52297 7.46373 4.53568 7.40362 4.53712C7.29648 4.53934 7.27899 4.59819 7.27455 4.68867C7.26715 4.81767 7.25279 4.94619 7.23153 5.07364C7.1985 5.2807 7.1627 5.32039 6.95397 5.3537C6.37435 5.44609 5.78422 5.45198 5.20287 5.37118C4.49648 5.27293 3.83978 5.0531 3.2991 4.55988C3.26774 4.53213 3.18808 4.52463 3.14617 4.54323C2.82403 4.68514 2.53198 4.88731 2.28574 5.13887C1.26128 6.18803 0.965681 7.46729 1.20327 8.8684C1.44502 10.2959 2.10117 11.5435 3.04347 12.6385C3.19363 12.8128 3.36655 12.9676 3.53475 13.1253C4.17535 13.7251 4.91865 13.8822 5.75104 13.6249C6.27308 13.4581 6.83412 13.4581 7.35615 13.6249C8.20733 13.8902 8.95673 13.7151 9.60436 13.0995C9.67792 13.0298 9.75619 12.9646 9.82641 12.8921C10.6549 12.047 11.2239 11.0428 11.6236 9.93672C11.9211 9.11376 12.0677 8.27138 11.9267 7.39568C11.7821 6.48863 11.4213 5.69176 10.7374 5.0642C10.215 4.58098 9.60658 4.29371 8.84164 4.30037ZM6.34362 4.86298C6.28534 4.80191 6.25786 4.77166 6.229 4.74307L4.30997 2.8246C4.26936 2.78691 4.23221 2.74567 4.19894 2.70136C4.16162 2.65057 4.14388 2.58802 4.14898 2.52521C4.15408 2.46239 4.18168 2.40352 4.2267 2.35941C4.27054 2.31086 4.33084 2.28032 4.39591 2.2737C4.46099 2.26709 4.52621 2.28487 4.57892 2.32361C4.62307 2.35695 4.66421 2.3941 4.70188 2.43463C5.3323 3.06376 5.96235 3.69289 6.59204 4.32202C6.62673 4.35643 6.66337 4.38891 6.70306 4.42721C6.76662 3.78883 6.73082 3.08689 6.4255 2.4041C6.20707 1.91588 5.8554 1.55755 5.36718 1.3405C4.58808 0.994387 3.76984 0.979676 2.93078 1.05406C2.85668 1.86369 2.87166 2.65085 3.18059 3.40636C3.33907 3.79494 3.58082 4.12384 3.93721 4.35449C4.66052 4.82439 5.47099 4.88351 6.34252 4.86298H6.34362Z" fill="#61676A"/>
<path d="M9.67865 11.4386C9.67812 11.5109 9.65002 11.5803 9.6001 11.6326C9.55017 11.6849 9.48217 11.7161 9.40997 11.72C9.33768 11.7222 9.26746 11.6957 9.21463 11.6463C9.1618 11.5969 9.13065 11.5286 9.12797 11.4564C9.12594 11.4193 9.13146 11.3823 9.14418 11.3475C9.1569 11.3127 9.17656 11.2808 9.20198 11.2539C9.22739 11.2269 9.25803 11.2054 9.29202 11.1906C9.32601 11.1758 9.36265 11.1681 9.3997 11.168C9.47201 11.1688 9.54126 11.1973 9.59316 11.2476C9.64507 11.298 9.67566 11.3663 9.67865 11.4386Z" fill="#61676A"/>
</svg>
