<svg width="20" height="20" viewBox="0 0 20 20" fill="none" xmlns="http://www.w3.org/2000/svg">
<path d="M10.3353 4.12511C10.6249 4.13229 10.7867 4.14756 11.0113 4.16673C12.4817 4.29189 13.8861 4.65479 15.1731 5.40245C15.9586 5.85847 16.6471 6.43066 17.0891 7.25498C17.3273 7.69872 17.458 8.17211 17.4539 8.68083C17.4483 9.35243 17.4699 10.0252 17.437 10.6956C17.3595 12.2775 16.6 13.4243 15.2057 14.139C14.6891 14.4037 14.1299 14.5055 13.5554 14.5354C12.766 14.5765 11.9805 14.5417 11.2107 14.3558C10.3296 14.1441 9.58851 13.6623 8.91366 13.0683C8.52076 12.7221 8.12894 12.3746 7.73821 12.0257C7.5749 11.8799 7.38969 11.8535 7.17608 11.8667C6.66662 11.8966 6.15478 11.9362 5.64561 11.9206C5.03555 11.902 4.42786 11.8008 3.86277 11.5613C3.01514 11.202 2.51987 10.5396 2.36247 9.62192C2.35485 9.5937 2.34495 9.56616 2.33289 9.53957V8.01761C2.40005 7.79034 2.4465 7.5544 2.53792 7.33762C2.82076 6.66601 3.31484 6.16987 3.89886 5.76505C4.22638 5.53898 4.58141 5.35304 4.92786 5.15572C5.06691 5.07637 5.1965 5.1126 5.2604 5.22938C5.32727 5.35184 5.282 5.4785 5.12697 5.55695C4.65952 5.79349 4.20981 6.05938 3.81011 6.40072C3.3891 6.76003 3.04087 7.17353 2.86898 7.7107C2.6178 8.49608 2.88082 9.04822 3.57667 9.47041C4.13525 9.80935 4.75833 9.9393 5.40212 9.9941C6.01839 10.0468 6.62993 9.99859 7.24265 9.9408C7.79384 9.889 8.28851 10.0693 8.71336 10.4058C9.16159 10.7609 9.57993 11.1544 10.0107 11.5334C10.4817 11.9469 10.9758 12.3227 11.5962 12.4757C11.8098 12.5284 12.0308 12.5512 12.2471 12.5871C12.2906 12.5943 12.3358 12.5946 12.3782 12.6048C12.5148 12.638 12.5924 12.7425 12.5719 12.8599C12.5515 12.9772 12.4447 13.0572 12.3101 13.0494C11.4521 12.9994 10.6909 12.697 10.0344 12.1401C9.59354 11.7661 9.17283 11.3679 8.73614 10.9888C8.44384 10.7349 8.12934 10.5025 7.73999 10.436C7.51099 10.3968 7.27224 10.4082 7.03792 10.41C6.4536 10.4145 5.86721 10.4633 5.28585 10.4268C4.50922 10.3777 3.76336 10.1824 3.11661 9.70815C3.01395 9.63269 2.92016 9.54496 2.80182 9.44615C2.79827 9.67282 2.86099 9.86684 2.94265 10.0519C3.21809 10.684 3.69443 11.0768 4.35419 11.2544C5.22533 11.4932 6.13522 11.551 7.02904 11.4244C7.4465 11.3646 7.79176 11.4619 8.10241 11.7421C8.55034 12.1461 8.99591 12.5533 9.46011 12.9374C10.124 13.4875 10.8666 13.886 11.7305 13.9998C12.6261 14.1178 13.5317 14.1962 14.4116 13.9471C15.7935 13.5557 16.6305 12.617 16.9415 11.1999C16.9494 11.1394 16.9535 11.0785 16.9539 11.0175C16.8489 11.1852 16.7711 11.3211 16.6823 11.4496C16.0483 12.367 15.1438 12.8233 14.0787 12.9979C13.8716 13.032 13.6595 13.0485 13.4489 13.0647C13.2861 13.0773 13.1826 12.9973 13.1719 12.8653C13.1613 12.7332 13.264 12.6401 13.4273 12.6155C13.7956 12.5605 14.1714 12.529 14.5287 12.4308C15.6569 12.1206 16.4086 11.39 16.7684 10.2645C16.9666 9.64467 17.0551 9.0069 16.9796 8.35386C16.9228 7.86221 16.7151 7.43343 16.4175 7.04568C15.869 6.33245 15.1453 5.85547 14.3483 5.4785C13.3921 5.02547 12.379 4.77096 11.3353 4.6482C10.4159 4.53992 9.48746 4.53459 8.56691 4.63233C7.76082 4.71672 6.965 4.88191 6.19117 5.12548C6.11928 5.14824 6.02638 5.16979 5.96543 5.14195C5.89626 5.10242 5.8454 5.03673 5.82401 4.9593C5.79442 4.84971 5.86484 4.76408 5.96809 4.73084C6.22519 4.6479 6.48259 4.56526 6.74384 4.49849C7.53973 4.29549 8.35359 4.17312 9.17342 4.13319C9.50419 4.11852 9.8746 4.10564 10.3353 4.12511Z" fill="#61676A"/>
<path d="M9.89344 5.0632C11.1751 5.07548 12.4292 5.25213 13.6328 5.71744C14.4141 6.01986 15.1417 6.41509 15.7414 7.02113C16.2668 7.5526 16.5698 8.17031 16.5106 8.94312C16.4644 9.54796 16.3576 10.1327 16.063 10.6708C15.7357 11.2696 15.2411 11.6655 14.6109 11.8885C13.8819 12.1464 13.1292 12.1452 12.3677 12.1005C11.5207 12.0511 10.8641 11.6397 10.2585 11.0867C9.8248 10.6909 9.38575 10.2971 8.9177 9.94469C8.33368 9.50514 7.66326 9.37579 6.93545 9.46262C6.05705 9.56682 5.17716 9.56682 4.32598 9.2686C4.13119 9.20058 3.94477 9.11016 3.77036 8.99912C3.23249 8.65478 3.15882 8.26373 3.42924 7.66728C3.6316 7.22084 3.97391 6.89208 4.35764 6.60673C5.18279 5.99291 6.12125 5.63779 7.10616 5.39406C8.02007 5.1686 8.95143 5.07038 9.89344 5.0632ZM9.87066 5.51712C8.7887 5.52581 7.69965 5.66055 6.63989 5.99141C5.82717 6.24532 5.05527 6.58487 4.40143 7.15197C4.12657 7.39151 3.88782 7.6592 3.77036 8.01671C3.6816 8.28619 3.71415 8.42482 3.95054 8.57843C4.12247 8.69284 4.30795 8.78488 4.50261 8.8524C5.27007 9.10721 6.05971 9.09912 6.85231 9.02008C7.25468 8.98025 7.65438 8.9569 8.05409 9.05451C8.70823 9.2141 9.25054 9.57131 9.74787 10.0127C10.118 10.3399 10.4778 10.6798 10.8526 11.0008C11.1653 11.2702 11.5088 11.4963 11.9215 11.5736C12.6482 11.7095 13.3789 11.7275 14.1035 11.567C14.8281 11.4065 15.3994 11.0298 15.7325 10.3375C15.9417 9.90247 16.013 9.43567 16.0579 8.9566C16.1121 8.37362 15.9218 7.89155 15.5467 7.47116C14.976 6.83039 14.2449 6.43875 13.4627 6.13573C12.3147 5.69079 11.1171 5.52701 9.87066 5.51712Z" fill="#61676A"/>
<path d="M7.14594 7.7101C7.14387 8.28229 6.66014 8.76766 6.09771 8.76137C5.82488 8.75556 5.56482 8.64329 5.37185 8.448C5.17889 8.25271 5.06795 7.98951 5.06221 7.71339C5.0554 7.14838 5.53943 6.65583 6.10393 6.65343C6.66842 6.65104 7.14771 7.1397 7.14594 7.7101ZM5.51487 7.70261C5.51297 7.86067 5.57289 8.01308 5.68157 8.12661C5.79026 8.24014 5.93889 8.30557 6.09505 8.30864C6.41724 8.31703 6.70126 8.03347 6.69949 7.7056C6.69824 7.5473 6.6351 7.39594 6.52388 7.28462C6.41267 7.17329 6.26242 7.11107 6.106 7.11155C6.02864 7.11036 5.95183 7.12478 5.88004 7.15397C5.80825 7.18316 5.74294 7.22653 5.6879 7.28156C5.63287 7.33659 5.58922 7.40217 5.55951 7.47446C5.5298 7.54675 5.51463 7.62431 5.51487 7.70261Z" fill="#61676A"/>
</svg>
