<svg width="20" height="19" viewBox="0 0 20 19" fill="none" xmlns="http://www.w3.org/2000/svg">
<path d="M7.71678 5.34142H13.4944M7.71678 5.34142V3.89701C7.71678 3.70547 7.79287 3.52177 7.92831 3.38633C8.06375 3.25089 8.24744 3.1748 8.43898 3.1748H12.7722C12.9638 3.1748 13.1475 3.25089 13.2829 3.38633C13.4183 3.52177 13.4944 3.70547 13.4944 3.89701V5.34142M7.71678 5.34142L6.92654 6.61178C6.49893 7.29884 6.27226 8.09192 6.27222 8.90117V14.7301C6.27222 15.1132 6.4244 15.4806 6.69528 15.7514C6.96615 16.0223 7.33355 16.1745 7.71663 16.1745H13.4943C13.8774 16.1745 14.2447 16.0223 14.5156 15.7514C14.7865 15.4806 14.9387 15.1132 14.9387 14.7301V8.90117C14.9386 8.09192 14.712 7.29884 14.2844 6.61178L13.4944 5.34142M9.16089 8.23024H12.0497M12.0497 12.5635C12.0497 13.3612 11.403 14.0079 10.6053 14.0079C9.80758 14.0079 9.16089 13.3612 9.16089 12.5635C9.16089 11.7658 9.80758 11.1191 10.6053 11.1191C11.403 11.1191 12.0497 11.7658 12.0497 12.5635Z" stroke="#61676A" strokeWidth="0.551503" strokeLinecap="round" strokeLinejoin="round"/>
</svg>
