<svg width="20" height="20" viewBox="0 0 20 20" fill="none" xmlns="http://www.w3.org/2000/svg">
<path d="M3.12178 12.6746C3.55661 12.1741 4.10672 11.8748 4.74924 11.7541C5.49096 11.6149 6.1888 11.7503 6.83626 12.145C6.85419 12.156 6.87397 12.1647 6.9058 12.1813C6.91692 11.9896 6.92836 11.8113 6.9367 11.6327C6.99573 10.4307 7.17282 9.24967 7.55048 8.1046C7.58139 8.0142 7.56562 7.96009 7.49887 7.89472C7.24483 7.64607 6.99666 7.39084 6.74726 7.13718C6.37825 6.76185 6.3798 6.26141 6.76302 5.90266C7.48064 5.22957 8.32651 4.96433 9.29538 5.11697C9.34193 5.12688 9.39015 5.12526 9.43594 5.11224C9.48174 5.09922 9.52375 5.0752 9.55839 5.04221C10.7513 4.03633 12.0985 3.34885 13.6329 3.06422C14.2297 2.95381 14.8311 2.9144 15.4322 3.04765C16.2991 3.23938 16.6789 3.6316 16.8127 4.53646C16.933 5.35186 16.8557 6.16821 16.6273 6.96703C16.271 8.21896 15.6577 9.38069 14.8274 10.3763C14.795 10.4116 14.7714 10.4542 14.7588 10.5007C14.7461 10.5471 14.7448 10.596 14.7548 10.6431C14.9053 11.6286 14.6401 12.4885 13.9682 13.2153C13.6243 13.5882 13.1282 13.5907 12.767 13.2291C12.5061 12.9679 12.2459 12.7055 11.9897 12.4397C11.9378 12.3859 11.8951 12.3787 11.8268 12.4015C10.8122 12.744 9.76762 12.9279 8.70263 13.0027C8.39945 13.0239 8.09565 13.0418 7.77176 13.0627C7.79587 13.1049 7.81627 13.1415 7.83728 13.1775C8.50329 14.3035 8.34289 15.7839 7.45097 16.7353C7.39967 16.7904 7.34125 16.8382 7.28624 16.8895H7.09834C7.05244 16.8547 7.00868 16.8171 6.9673 16.7769C6.24618 15.9956 5.99256 15.0814 6.20642 14.0342C6.22991 13.9178 6.26421 13.8037 6.29697 13.6739C6.24412 13.6883 6.21043 13.6964 6.17705 13.7067C5.66669 13.8717 5.12114 13.8904 4.60089 13.7608C4.01864 13.6154 3.51304 13.3358 3.12085 12.8657L3.12178 12.6746ZM7.47538 12.5132C7.83666 12.4963 8.19423 12.4819 8.55119 12.4619C9.48028 12.411 10.4008 12.2545 11.2953 11.9952C12.1028 11.7569 12.8751 11.4369 13.5405 10.903C14.2584 10.3269 14.7993 9.59653 15.2659 8.8074C15.3404 8.68229 15.4078 8.55061 15.4674 8.44208C15.1216 8.4108 14.7814 8.40079 14.4476 8.34825C14.0059 8.27819 13.6011 8.09521 13.2243 7.8525C13.0843 7.76242 13.0476 7.60635 13.1251 7.47529C13.2027 7.34424 13.3588 7.30733 13.5006 7.38302C13.5362 7.4021 13.5693 7.42556 13.6042 7.44558C14.2442 7.81747 14.9248 7.95697 15.6566 7.82091C15.7462 7.80433 15.7802 7.76086 15.8111 7.68298C16.1025 6.94764 16.2926 6.18822 16.3337 5.39503C16.3557 4.97591 16.3102 4.56398 16.1532 4.1702C16.1133 4.06418 16.0517 3.96788 15.9724 3.88763C15.8932 3.80737 15.7981 3.74496 15.6934 3.70447C15.2953 3.54183 14.8796 3.49804 14.4572 3.52181C13.7772 3.55966 13.1245 3.71573 12.486 3.94781C12.0759 4.09669 12.0583 4.12391 12.0398 4.56961C12.0193 5.00022 12.0867 5.43048 12.2379 5.83354C12.3037 6.00932 12.244 6.15976 12.0954 6.21794C11.9467 6.27611 11.8009 6.20355 11.735 6.03027C11.604 5.68622 11.5165 5.33184 11.5045 4.96214C11.4983 4.77448 11.5045 4.58838 11.5045 4.36506C11.1954 4.55647 10.9071 4.71912 10.6354 4.9071C9.99415 5.35155 9.39212 5.84386 8.93318 6.48911C8.39234 7.24978 8.07834 8.11273 7.8515 9.01227C7.63763 9.86552 7.52761 10.7353 7.47847 11.6127C7.46302 11.9014 7.47538 12.1957 7.47538 12.5132ZM7.1892 16.1911C7.86911 15.4142 7.86911 13.9601 7.1892 13.1997C6.51948 13.997 6.48734 15.3328 7.1892 16.1911ZM3.81621 12.7703C4.6114 13.4696 5.97648 13.4668 6.76827 12.7684C5.91467 12.0606 4.59842 12.1009 3.81621 12.7703ZM8.93441 5.6246C8.19269 5.60802 7.59128 5.84136 7.09494 6.34398C6.97936 6.46096 6.99202 6.60265 7.11348 6.72932C7.27511 6.89791 7.44108 7.06274 7.6058 7.22976C7.66761 7.29232 7.72942 7.35143 7.80236 7.42212C8.08514 6.75966 8.43313 6.16508 8.93349 5.6246H8.93441ZM14.2535 11.0078C13.7185 11.5182 13.1242 11.867 12.4832 12.1541C12.728 12.4043 12.9545 12.6423 13.1888 12.8719C13.2991 12.9798 13.4401 12.9776 13.5501 12.8644C14.0381 12.3618 14.2705 11.7559 14.2526 11.0078H14.2535Z" fill="#61676A"/>
<path d="M14.664 5.48072C14.6284 5.48065 14.5931 5.47341 14.5602 5.45943C14.5273 5.44545 14.4975 5.42501 14.4725 5.3993C14.4475 5.37358 14.4278 5.3431 14.4145 5.30961C14.4012 5.27613 14.3947 5.24031 14.3951 5.20423C14.397 5.13373 14.4252 5.06657 14.474 5.01621C14.5227 4.96585 14.5885 4.93603 14.6581 4.93274C14.7299 4.93422 14.7985 4.96313 14.8501 5.01366C14.9017 5.06419 14.9325 5.13261 14.9363 5.20517C14.9354 5.27797 14.9064 5.34755 14.8556 5.39903C14.8047 5.45051 14.736 5.47983 14.664 5.48072Z" fill="#61676A"/>
<path d="M12.2842 6.89384C12.2845 6.82124 12.313 6.75167 12.3635 6.70012C12.414 6.64858 12.4825 6.61919 12.5543 6.61829C12.6259 6.62143 12.6936 6.65248 12.7432 6.70493C12.7928 6.75738 12.8204 6.8272 12.8204 6.89979C12.8189 6.97021 12.7903 7.03727 12.7408 7.0867C12.6912 7.13613 12.6245 7.164 12.5549 7.16439C12.5193 7.16546 12.4839 7.15921 12.4508 7.14604C12.4177 7.13286 12.3876 7.11303 12.3623 7.08774C12.337 7.06245 12.317 7.03222 12.3036 6.9989C12.2902 6.96557 12.2836 6.92983 12.2842 6.89384Z" fill="#61676A"/>
</svg>
