<svg width="20" height="20" viewBox="0 0 20 20" fill="none" xmlns="http://www.w3.org/2000/svg">
<path d="M3.28797 17.7792C3.16463 17.7176 3.12085 17.6164 3.12085 17.4786C3.12311 14.2171 3.12383 10.9555 3.12301 7.69378C3.12301 7.43015 3.24635 7.34566 3.49888 7.42891C3.54174 7.4431 3.58522 7.45512 3.65306 7.47486C3.65306 7.32068 3.64103 7.1773 3.65553 7.03793C3.68328 6.76936 3.71257 6.49924 3.76684 6.23622C3.80847 6.03394 3.93242 5.95717 4.07519 5.9991C4.21795 6.04104 4.27006 6.17424 4.205 6.36634C4.06964 6.7672 4.12483 7.17915 4.11805 7.5874C4.11805 7.61824 4.16368 7.6648 4.19791 7.67744C4.4856 7.78505 4.77421 7.8902 5.0656 7.98579C5.12884 8.00034 5.19502 7.99518 5.25524 7.97099C5.76247 7.794 6.26662 7.60745 6.7757 7.43539C6.8713 7.40641 6.97334 7.40641 7.06894 7.43539C7.38037 7.53313 7.68564 7.64938 8.00817 7.76347C8.05936 7.51957 8.0942 7.28306 8.16049 7.05427C8.25762 6.72064 8.38127 6.39471 8.48364 6.06262C8.50351 5.99362 8.49759 5.91975 8.46699 5.85479C8.36616 5.66978 8.25115 5.49526 8.13675 5.31827C7.87089 4.91253 7.73287 4.43638 7.74052 3.95136C7.74052 3.86564 7.74052 3.77992 7.74052 3.68834H5.20806C5.1837 3.95013 5.17229 4.20544 5.13436 4.45674C5.07269 4.86099 4.87165 5.20788 4.64471 5.53935C4.62868 5.56433 4.60784 5.58587 4.58341 5.60271C4.55897 5.61955 4.53143 5.63136 4.50238 5.63744C4.47334 5.64353 4.44337 5.64377 4.41423 5.63815C4.38509 5.63253 4.35736 5.62117 4.33266 5.60472C4.22967 5.53904 4.20007 5.41447 4.2602 5.29329C4.27608 5.26096 4.29464 5.23002 4.3157 5.20079C4.65211 4.73826 4.76034 4.21746 4.72334 3.65905C4.71668 3.60144 4.68954 3.54814 4.64687 3.50888C4.35548 3.25881 4.2491 2.90668 4.37151 2.56903C4.49392 2.23139 4.80073 2.0248 5.18339 2.02387C6.03484 2.02264 6.88599 2.02264 7.73682 2.02387C8.12257 2.02387 8.42598 2.22954 8.54963 2.56688C8.67328 2.90421 8.57245 3.2511 8.2789 3.50672C8.23933 3.54211 8.2131 3.59 8.20459 3.64239C8.13305 4.3112 8.35105 4.89306 8.74851 5.4191C8.75406 5.42619 8.76609 5.42835 8.77349 5.43205C8.91687 5.21435 9.051 4.9908 9.20518 4.78143C9.58537 4.26279 10.0362 3.81939 10.6205 3.53139C11.6547 3.02169 12.6911 3.3174 13.296 4.30226C13.72 4.99204 13.8523 5.75797 13.8434 6.55505C13.8397 6.85631 13.8125 7.15695 13.7943 7.46869C13.8652 7.44649 13.9352 7.41966 14.0077 7.40301C14.1619 7.36724 14.2827 7.4542 14.3 7.613C14.3031 7.65908 14.3037 7.70529 14.3019 7.75144C14.3019 9.15669 14.3014 10.5618 14.3003 11.9669C14.3003 12.0714 14.3198 12.1247 14.4341 12.1602C14.8563 12.2909 15.1597 12.5703 15.3669 12.9579C15.3879 12.9971 15.4091 13.0359 15.44 13.093C15.6228 12.854 15.7107 12.5981 15.7483 12.3221C15.7594 12.2407 15.7622 12.1587 15.7699 12.0754C15.7856 11.9111 15.8674 11.8266 16.0058 11.8303C16.1442 11.834 16.234 11.9354 16.2294 12.1044C16.2183 12.5281 16.11 12.9234 15.8744 13.2798C15.8436 13.3267 15.8128 13.3723 15.794 13.3998C15.9941 13.5564 16.2136 13.6871 16.3798 13.8669C16.8115 14.3294 16.8707 14.8977 16.7563 15.4935C16.6817 15.8614 16.5308 16.2096 16.3132 16.5156C16.2176 16.6541 16.0887 16.6914 15.974 16.6189C15.8507 16.5421 15.8347 16.4068 15.9336 16.2566C16.1692 15.8989 16.3259 15.5166 16.3404 15.0815C16.3619 14.4398 16.0477 13.9875 15.4286 13.8083C15.2275 13.7501 15.1267 13.6508 15.0675 13.4479C14.8631 12.7464 14.2809 12.4149 13.5365 12.5555C13.1926 12.6189 12.8675 12.7593 12.5856 12.9662C13.3756 14.265 13.3195 15.5175 12.3975 16.7395C12.8012 17.0914 13.3134 17.294 13.8486 17.3133C14.344 17.3374 14.8341 17.2027 15.2476 16.9288C15.2692 16.9149 15.2904 16.9001 15.3129 16.8881C15.4397 16.819 15.5695 16.8449 15.6379 16.9522C15.7064 17.0596 15.682 17.1897 15.5618 17.2739C15.2502 17.4919 14.897 17.6431 14.5242 17.7182C14.4298 17.7376 14.3355 17.758 14.2408 17.7777L3.28797 17.7792ZM8.45466 17.3096L8.35475 17.2335C7.64216 16.7148 7.19814 16.0309 7.05722 15.153C6.92093 14.3042 7.2965 13.5669 8.06552 13.1815C8.09612 13.1644 8.12576 13.1456 8.15433 13.1253C7.82947 12.7117 7.65485 12.1999 7.65912 11.6739C7.65912 11.5198 7.75594 11.4205 7.88976 11.422C8.01711 11.4236 8.10561 11.5188 8.11887 11.6632C8.12873 11.7806 8.13182 11.899 8.15217 12.0147C8.20181 12.2974 8.29987 12.5604 8.49382 12.796C8.53144 12.7214 8.55734 12.6659 8.58632 12.6126C8.86384 12.1096 9.27949 11.7991 9.85055 11.71C10.5169 11.6061 11.1209 11.7859 11.6784 12.1383C11.8943 12.274 12.0864 12.4439 12.2951 12.6033C12.7475 12.2789 13.2575 12.0847 13.8313 12.064V7.95557C13.7675 7.97715 13.7148 7.99381 13.6627 8.01231C13.2578 8.15723 12.8557 8.30894 12.4475 8.44245C12.3422 8.47498 12.2296 8.47498 12.1243 8.44245C11.6245 8.27502 11.1314 8.08754 10.6325 7.91826C10.5432 7.89004 10.4474 7.89004 10.3581 7.91826C9.86474 8.08693 9.37631 8.27379 8.88141 8.43937C8.77147 8.4736 8.65372 8.4736 8.54377 8.43937C8.04425 8.27224 7.55151 8.08477 7.05291 7.91518C6.96803 7.88828 6.87692 7.88828 6.79204 7.91518C6.29869 8.08446 5.81088 8.27163 5.31567 8.4369C5.20111 8.4719 5.07871 8.4719 4.96416 8.4369C4.56947 8.31017 4.18188 8.16278 3.79243 8.02341C3.73076 8.00151 3.66909 7.98116 3.59416 7.95588V17.3096H8.45466ZM10.0858 17.3275C10.2437 17.3099 10.4031 17.3032 10.5585 17.2729C11.7531 17.042 12.6303 16.0303 12.6692 14.8447C12.7096 13.6212 11.9116 12.5321 10.7349 12.2182C9.80276 11.9715 9.0584 12.3202 8.82899 13.2666C8.79045 13.4263 8.66865 13.4614 8.5376 13.4994C7.78369 13.7177 7.4035 14.3011 7.50988 15.075C7.6844 16.342 8.80248 17.3161 10.0858 17.3275ZM8.45928 7.90809C8.61037 8.00552 8.74204 8.01138 8.8956 7.9528C9.37878 7.76933 9.86628 7.59665 10.3556 7.43045C10.4465 7.40192 10.5439 7.40192 10.6347 7.43045C11.1533 7.60652 11.6673 7.79585 12.1844 7.97654C12.2403 7.99775 12.3014 8.00109 12.3593 7.9861C12.6358 7.89359 12.9101 7.79441 13.1823 7.68854C13.2073 7.67649 13.2294 7.65926 13.2473 7.638C13.2652 7.61674 13.2783 7.59192 13.2859 7.5652C13.4112 6.9454 13.4217 6.30785 13.3167 5.68428C13.2242 5.16255 13.0561 4.67012 12.6978 4.26587C12.3343 3.85608 11.8813 3.67539 11.3334 3.77653C10.7907 3.87643 10.3633 4.1817 9.99177 4.56775C9.09171 5.49988 8.65509 6.64694 8.45928 7.90809ZM6.46581 2.48424C6.04522 2.48424 5.62495 2.48424 5.20467 2.48424C4.94535 2.48424 4.78593 2.62762 4.78778 2.85271C4.78932 3.07103 4.94658 3.21533 5.19572 3.21595C6.03649 3.218 6.87725 3.218 7.71801 3.21595C7.97302 3.21595 8.14076 3.06455 8.1386 2.84593C8.13644 2.62731 7.96839 2.48455 7.71154 2.48393C7.29619 2.48331 6.88085 2.48424 6.46581 2.48424ZM12.3747 17.3106L12.0515 17.0639L11.7253 17.3106H12.3747Z" fill="#61676A"/>
<path d="M10.4188 5.37624C10.5224 5.40461 10.6902 5.44839 10.8567 5.49588C11.3534 5.63833 11.8502 5.78017 12.3457 5.92756C12.7308 6.04042 12.9273 6.3796 12.8258 6.74345C12.7256 7.0999 12.3688 7.29108 11.9856 7.18347C11.3849 7.01449 10.7853 6.84141 10.1867 6.66421C9.85888 6.56739 9.65506 6.26335 9.70039 5.95501C9.7491 5.61459 10.0198 5.37562 10.4188 5.37624ZM10.3158 5.82458C10.2714 5.87453 10.1873 5.9288 10.1669 6.00126C10.1311 6.12676 10.2224 6.19675 10.3377 6.23005C10.9174 6.39738 11.4971 6.56441 12.0768 6.73112C12.2399 6.77768 12.3417 6.73821 12.3802 6.61826C12.4188 6.49832 12.3494 6.40797 12.1863 6.3611C11.6119 6.19459 11.0372 6.0288 10.462 5.86374C10.4278 5.85264 10.3932 5.84431 10.3158 5.82458Z" fill="#61676A"/>
</svg>
