<svg width="20" height="20" viewBox="0 0 20 20" fill="none" xmlns="http://www.w3.org/2000/svg">
<path d="M17.5204 6.5878C17.4158 6.98193 17.2092 7.30475 16.8748 7.54002C16.7897 7.6002 16.6696 7.65345 16.6396 7.73709C16.6096 7.82073 16.6723 7.93746 16.6973 8.03795C16.925 8.97556 17.0284 9.93964 17.005 10.9049C17.0002 11.1245 16.9752 11.3438 16.9553 11.5628C16.9422 11.7115 16.8444 11.8011 16.7142 11.7912C16.5906 11.7822 16.5106 11.6886 16.5133 11.5427C16.5213 11.0631 16.5516 10.5826 16.5379 10.1037C16.5214 9.48817 16.4279 8.87727 16.2597 8.28556C16.2597 8.3355 16.2597 8.38544 16.2597 8.43599C16.2451 8.99499 16.2692 9.5585 16.2071 10.1118C16.106 11.008 15.672 11.7458 14.9906 12.3225C14.3262 12.8856 13.5444 13.2892 12.7039 13.5031C11.884 13.7155 11.2687 14.2342 10.8311 14.9505C10.6046 15.3209 10.4494 15.7361 10.2618 16.1308C10.2095 16.2409 10.252 16.2882 10.3626 16.3204C11.0556 16.523 11.7921 16.5155 12.481 16.299C13.7848 15.8997 14.8319 15.1154 15.6497 14.02C15.9434 13.6261 16.1292 13.1721 16.274 12.7022C16.2858 12.664 16.2948 12.6252 16.3078 12.5876C16.3628 12.4323 16.4725 12.3661 16.6007 12.4095C16.7288 12.4528 16.7847 12.5707 16.7347 12.7278C16.6622 12.9555 16.5861 13.1836 16.4969 13.4044C16.1628 14.224 15.6152 14.8765 14.9433 15.4337C14.2337 16.0222 13.4668 16.5033 12.5734 16.7497C11.7494 16.9768 10.9277 16.9807 10.106 16.7196C9.98205 16.6802 9.83341 16.7067 9.69815 16.7196C8.93979 16.7999 8.19005 16.7798 7.4534 16.5553C6.51191 16.2671 5.81836 15.6645 5.32785 14.8185C5.08289 14.3972 4.8644 13.9595 4.63936 13.5248C4.52431 13.3027 4.37448 13.217 4.11169 13.2642C3.58461 13.359 2.93327 13.0479 2.68237 12.6252C2.45971 12.2491 2.48498 11.8784 2.72131 11.5276C2.83636 11.3564 2.99213 11.2132 3.12294 11.0649C3.02067 10.8645 2.89344 10.6609 2.80931 10.4403C2.65502 10.0354 2.64729 9.61386 2.80723 9.2107C2.92614 8.91135 2.8866 8.66765 2.71983 8.39597C1.79559 6.88685 2.60597 4.89816 4.31324 4.47425C4.52669 4.4213 4.75262 4.41408 4.97379 4.39934C5.08408 4.39242 5.15662 4.35601 5.21637 4.26214C5.58103 3.69171 6.09335 3.34071 6.7533 3.20913C7.15335 3.12832 7.56793 3.16581 7.94748 3.31714C8.11514 3.38273 8.23792 3.36347 8.37437 3.23651C8.89877 2.74791 9.52067 2.57461 10.2237 2.68623C10.2519 2.68931 10.2804 2.68608 10.3072 2.67677C10.3341 2.66747 10.3585 2.65231 10.3789 2.63238C10.6343 2.29722 10.9882 2.0528 11.3897 1.93438C11.4069 1.9266 11.423 1.91648 11.4375 1.9043H11.6159C11.6626 1.99034 11.7428 2.07488 11.7476 2.16334C11.7544 2.28759 11.6364 2.33784 11.5279 2.37093C11.4857 2.38417 11.4426 2.3959 11.4016 2.41245C11.1548 2.51053 10.9405 2.65314 10.7773 2.87518C10.807 2.89443 10.8269 2.90887 10.8483 2.92121C11.4218 3.25215 11.7764 3.74075 11.9185 4.39362C11.9316 4.45379 12.0077 4.52028 12.0713 4.54405C12.8782 4.83555 13.6164 5.29339 14.2394 5.8886C14.3815 6.02429 14.52 6.16358 14.666 6.30679C14.8443 5.93403 15.1062 5.6449 15.4663 5.4695C15.4466 5.35848 15.4255 5.2613 15.4124 5.16292C15.3155 4.43063 14.6871 3.82229 13.9596 3.76452C13.6505 3.73985 13.4245 3.60025 13.3137 3.30119C13.2452 3.11039 13.1393 2.93554 13.0025 2.78712C12.8656 2.6387 12.7006 2.51976 12.5172 2.43742C12.3615 2.36431 12.3118 2.23705 12.3751 2.11099C12.4346 1.99064 12.5603 1.95785 12.7078 2.02675C13.1617 2.23735 13.5027 2.5683 13.6888 3.04035C13.7643 3.2332 13.8785 3.30571 14.0702 3.32105C14.407 3.34843 14.7106 3.4796 14.9844 3.67607C15.4856 4.0371 15.7805 4.5251 15.8596 5.14397C15.8747 5.2613 15.9211 5.34374 16.0495 5.35006C16.109 5.35307 16.1684 5.35006 16.2279 5.35337C16.8224 5.39729 17.3153 5.59676 17.521 6.22917L17.5204 6.5878ZM10.2853 10.3272C10.2891 10.3167 10.304 10.28 10.315 10.2424C10.5927 9.38039 11.0621 8.64388 11.7509 8.06442C12.0226 7.83577 12.3306 7.65014 12.6281 7.45488C12.6525 7.43736 12.6803 7.42513 12.7096 7.41898C12.7389 7.41282 12.7691 7.41287 12.7984 7.41911C12.8277 7.42535 12.8554 7.43766 12.8798 7.45526C12.9041 7.47286 12.9246 7.49537 12.94 7.52137C13.0078 7.62968 12.9807 7.74912 12.863 7.83366C12.7988 7.88 12.7283 7.9173 12.6605 7.95792C11.5413 8.62974 10.8789 9.6295 10.6093 10.9043C10.5682 11.0935 10.555 11.2878 10.5701 11.481C10.6141 11.9925 10.7003 12.5015 10.7342 13.0139C10.7639 13.4399 10.7398 13.8692 10.7398 14.2862C10.751 14.2776 10.761 14.2675 10.7695 14.2561C11.2669 13.6662 11.8742 13.2477 12.6213 13.0527C12.72 13.0271 12.7105 12.9721 12.7134 12.9005C12.7322 12.4817 12.7253 12.0581 12.7821 11.6456C12.8781 10.9416 13.1371 10.307 13.6888 9.82717C13.7254 9.79558 13.742 9.71585 13.7361 9.662C13.7064 9.3849 13.6469 9.10992 13.6311 8.83252C13.6032 8.29097 13.7055 7.77439 14.0313 7.32822C14.1618 7.14951 14.3268 6.99727 14.4772 6.8312C13.146 5.04348 10.6423 4.04643 8.0319 5.02272C5.44558 5.98969 4.15568 8.37311 4.29808 10.6979C4.31991 10.7082 4.34272 10.7163 4.36616 10.7219C4.82842 10.7887 5.18843 11.0381 5.5086 11.3655C5.57209 11.4309 5.65242 11.4769 5.74048 11.4985C6.1159 11.5727 6.4629 11.753 6.74141 12.0183C7.17574 12.4296 7.44091 12.9441 7.59936 13.5157C7.64187 13.6698 7.69627 13.7513 7.86691 13.7907C8.5132 13.9411 8.99181 14.3551 9.39998 14.8582C9.59826 15.1022 9.76801 15.3696 9.96481 15.647C10.0216 15.4879 10.0959 15.3432 10.1242 15.1897C10.2556 14.4869 10.3111 13.7716 10.2897 13.0566C10.2865 12.9582 10.2567 12.9062 10.1708 12.8592C9.52989 12.5021 8.8512 12.309 8.11425 12.3478C7.92191 12.3577 7.82381 12.2786 7.81697 12.1342C7.81013 11.9898 7.90199 11.9094 8.09255 11.8962C8.77331 11.8487 9.41633 11.9931 10.0314 12.2819C10.0959 12.312 10.1625 12.3382 10.2395 12.3722C10.1788 11.7746 10.0514 11.186 9.85957 10.6175C9.83664 10.5586 9.79831 10.5071 9.74869 10.4686C9.45527 10.2348 9.11578 10.1076 8.75191 10.0375C8.06163 9.9066 7.38443 10.0056 6.71436 10.1723C6.51132 10.224 6.31125 10.2971 6.1091 10.3573C5.98514 10.3934 5.89357 10.3401 5.84155 10.2279C5.78953 10.1157 5.84333 9.99535 5.95481 9.93698C5.98994 9.91872 6.02705 9.90468 6.0654 9.89516C6.50538 9.78715 6.94118 9.65447 7.38681 9.57986C8.00069 9.47727 8.61754 9.49351 9.21953 9.68426C9.31823 9.71435 9.41455 9.75376 9.53524 9.79708C9.27691 9.24771 8.98617 8.7555 8.62824 8.30662C8.56623 8.2328 8.48315 8.18025 8.39042 8.15619C7.82559 8.0214 7.26433 8.04577 6.70515 8.19049C6.53659 8.23411 6.42333 8.18236 6.38141 8.04637C6.33949 7.91038 6.4153 7.80749 6.58356 7.75484C6.60704 7.74732 6.63023 7.73889 6.65431 7.73288C7.06248 7.63154 7.48332 7.5925 7.90288 7.61704C7.93743 7.61729 7.97197 7.61558 8.00634 7.61193L8.02358 7.57131C7.70965 7.31317 7.39454 7.05654 7.08299 6.79569C7.02353 6.74665 6.94683 6.68347 6.9394 6.61939C6.937 6.57694 6.94314 6.53444 6.95745 6.49447C6.97176 6.45449 6.99393 6.41787 7.02264 6.38682C7.10588 6.30529 7.21468 6.33658 7.30862 6.40127C7.78577 6.73319 8.21991 7.12435 8.60089 7.5656C8.79829 7.79124 8.98319 8.02832 9.17524 8.26209C9.18832 8.24795 9.19753 8.24163 9.2011 8.232C9.21715 8.19018 9.23083 8.14806 9.24688 8.10564C9.42168 7.60742 9.66307 7.14289 9.99305 6.73432C10.1646 6.52372 10.3629 6.33207 10.5579 6.14102C10.5785 6.11906 10.6035 6.10171 10.6311 6.09007C10.6588 6.07842 10.6885 6.07274 10.7184 6.07339C10.7484 6.07404 10.7778 6.08101 10.805 6.09385C10.8321 6.10668 10.8563 6.12511 10.876 6.14794C10.9595 6.2382 10.9527 6.36667 10.8578 6.47076C10.8379 6.49273 10.8153 6.51228 10.7933 6.53244C10.1533 7.12303 9.75523 7.85623 9.53911 8.69864C9.52611 8.74975 9.53008 8.80377 9.5504 8.85238C9.79536 9.34699 10.0427 9.8398 10.2853 10.3272ZM11.4343 4.34368C11.4262 4.31149 11.423 4.29313 11.4173 4.27568C11.0606 3.13241 9.60391 2.72174 8.72843 3.53015C8.42788 3.80814 8.13387 3.87674 7.74414 3.73203C7.19833 3.52925 6.6665 3.62161 6.17153 3.9309C5.93476 4.07816 5.73556 4.27975 5.59005 4.51938C5.45806 4.7345 5.27315 4.84672 5.0172 4.85725C4.80108 4.86597 4.57901 4.8771 4.3721 4.93367C2.98143 5.31305 2.34496 6.92747 3.10659 8.16551C3.34976 8.56085 3.39435 8.9306 3.23085 9.36896C3.0501 9.85485 3.15534 10.3197 3.47283 10.7355C3.56856 10.8609 3.65536 10.7929 3.75703 10.771C3.8697 10.7466 3.8373 10.666 3.84265 10.5959C3.87684 10.1446 3.86494 9.68125 3.95443 9.24019C4.3507 7.2864 5.43695 5.83444 7.17187 4.89516C8.30897 4.27989 9.53108 4.06929 10.8132 4.24289C11.0169 4.27057 11.2193 4.30757 11.4343 4.34217V4.34368ZM9.74185 16.2599C9.49094 15.7295 9.19188 15.2616 8.79591 14.863C8.42788 14.4911 8.00069 14.2249 7.4644 14.1782C7.34162 14.1677 7.29019 14.0783 7.25095 13.9619C7.13352 13.6138 7.03304 13.2543 6.86687 12.9302C6.60496 12.4188 6.20483 12.0412 5.61829 11.9461C5.43695 11.916 5.30348 11.8505 5.19735 11.7072C5.1668 11.6679 5.13331 11.631 5.09717 11.5968C4.41342 10.9256 3.6515 11.0977 3.13721 11.7172C2.88719 12.018 2.93952 12.3508 3.25196 12.5897C3.49989 12.7795 3.78171 12.8469 4.08909 12.8147C4.18679 12.8007 4.28532 12.7936 4.38399 12.7934C4.66314 12.8033 4.83705 12.9883 4.96458 13.2064C5.17535 13.5675 5.36085 13.9429 5.55914 14.3106C5.86355 14.8738 6.2292 15.3862 6.77322 15.7397C7.68111 16.3306 8.68502 16.37 9.74185 16.2599ZM13.1606 12.9131C13.5173 12.7227 13.8476 12.5671 14.157 12.3761C14.7219 12.0274 15.1913 11.5764 15.4897 10.9644C15.7421 10.4463 15.8233 9.89125 15.8286 9.32262C15.8319 8.96159 15.8117 8.60297 15.8093 8.24314C15.8066 7.79184 15.9211 7.4269 16.4169 7.27226C16.7065 7.182 16.9134 6.95034 17.0276 6.65549C17.1301 6.38983 17.0683 6.13019 16.84 5.99631C16.4202 5.7508 15.9779 5.715 15.5438 5.95689C15.1785 6.16058 15.0266 6.52011 14.9395 6.90942C14.9062 7.05985 14.8455 7.17237 14.7204 7.26383C14.402 7.4964 14.2207 7.82133 14.1356 8.20523C14.0239 8.71128 14.0839 9.20739 14.2174 9.6999C14.2768 9.92314 14.2519 9.95834 14.0815 10.1094C13.9195 10.2529 13.7513 10.4036 13.6356 10.5838C13.1933 11.2782 13.1406 12.0626 13.1597 12.9146L13.1606 12.9131Z" fill="#A4BC46"/>
</svg>
