<svg width="12" height="13" viewBox="0 0 12 13" fill="none" xmlns="http://www.w3.org/2000/svg">
<path d="M11.4434 5.37033C11.3378 5.3772 11.232 5.3772 11.1264 5.37033C10.5547 5.37092 9.99178 5.23187 9.48876 4.96576C8.98575 4.69965 8.55848 4.31489 8.24565 3.84633V9.03896C8.24565 9.79729 8.01596 10.5386 7.58565 11.1691C7.15534 11.7996 6.54373 12.2911 5.82814 12.5812C5.11256 12.8714 4.32514 12.9474 3.56548 12.7994C2.80582 12.6515 2.10804 12.2863 1.56036 11.7501C1.01267 11.2139 0.639683 10.5307 0.488578 9.78697C0.337472 9.04322 0.415032 8.2723 0.711437 7.5717C1.00784 6.8711 1.50978 6.27229 2.15379 5.85099C2.79779 5.42969 3.55496 5.20483 4.3295 5.20483V5.20483H4.56897V7.09431C4.48931 7.08715 4.40916 7.08715 4.3295 7.09431C3.79898 7.09431 3.29019 7.30065 2.91505 7.66793C2.53991 8.03521 2.32916 8.53334 2.32916 9.05275C2.32916 9.57217 2.53991 10.0703 2.91505 10.4376C3.29019 10.8049 3.79898 11.0112 4.3295 11.0112C4.86597 11.0187 5.38405 10.82 5.77254 10.4577C6.16102 10.0954 6.38892 9.59842 6.4073 9.07344V0.267334H8.25268C8.33787 1.05251 8.70179 1.78352 9.281 2.33295C9.8602 2.88239 10.618 3.21541 11.4222 3.27396V5.34274" fill="white"/>
</svg>
