<svg width="15" height="15" viewBox="0 0 15 15" fill="none" xmlns="http://www.w3.org/2000/svg">
<path d="M14.3545 7.57024C14.3545 11.4873 11.1808 14.661 7.26372 14.661C6.53177 14.661 5.82842 14.5495 5.16509 14.3436C5.45386 13.8719 5.8856 13.0999 6.04571 12.4852C6.13149 12.1535 6.48603 10.7982 6.48603 10.7982C6.71762 11.2386 7.39238 11.6131 8.11004 11.6131C10.2487 11.6131 11.7898 9.646 11.7898 7.20141C11.7898 4.85974 9.877 3.10707 7.41812 3.10707C4.3588 3.10707 2.73193 5.15996 2.73193 7.39869C2.73193 8.43943 3.28661 9.73463 4.1701 10.1464C4.30448 10.2093 4.37596 10.1807 4.40741 10.052C4.43028 9.95479 4.55037 9.47159 4.60469 9.24857C4.62185 9.17709 4.61327 9.11419 4.55608 9.04557C4.26731 8.68818 4.03286 8.03628 4.03286 7.42728C4.03286 5.86331 5.21655 4.35081 7.23513 4.35081C8.97636 4.35081 10.1972 5.53737 10.1972 7.23572C10.1972 9.15422 9.22797 10.4837 7.96708 10.4837C7.2723 10.4837 6.74907 9.90904 6.91776 9.20283C7.1179 8.35937 7.50389 7.45015 7.50389 6.84115C7.50389 6.29791 7.21226 5.8433 6.60611 5.8433C5.89418 5.8433 5.32234 6.57811 5.32234 7.56452C5.32234 8.19354 5.53392 8.6167 5.53392 8.6167C5.53392 8.6167 4.83342 11.5845 4.70476 12.1392C4.5618 12.7511 4.61899 13.6145 4.67903 14.1749C2.04287 13.1428 0.172974 10.5752 0.172974 7.57024C0.172974 3.65317 3.34665 0.479492 7.26372 0.479492C11.1808 0.479492 14.3545 3.65317 14.3545 7.57024Z" fill="white"/>
</svg>
