<svg width="32" height="23" viewBox="0 0 32 23" fill="none" xmlns="http://www.w3.org/2000/svg">
<path d="M8.70572 9.44914C10.04 9.85148 11.2082 10.6767 12.0351 11.8011C12.8621 12.9255 13.3032 14.2884 13.2924 15.6854C13.2924 17.4183 12.6058 19.0802 11.3838 20.3056C10.1617 21.5309 8.50429 22.2193 6.77606 22.2193C5.04783 22.2193 3.39038 21.5309 2.16834 20.3056C0.946296 19.0802 0.259766 17.4183 0.259766 15.6854C0.329431 14.1151 0.772172 12.5843 1.55114 11.2203L7.19168 0.489197H10.9471L8.70572 9.44914ZM26.7999 9.44914C28.1342 9.85148 29.3024 10.6767 30.1294 11.8011C30.9563 12.9255 31.3975 14.2884 31.3866 15.6854C31.3066 17.3663 30.5844 18.9518 29.3697 20.113C28.155 21.2743 26.5411 21.9221 24.8629 21.9221C23.1846 21.9221 21.5707 21.2743 20.356 20.113C19.1414 18.9518 18.4191 17.3663 18.3392 15.6854C18.4155 14.1163 18.8578 12.5869 19.6305 11.2203L25.2711 0.489197H29.0265L26.7999 9.44914Z" fill="white"/>
</svg>
