<svg width="32" height="33" viewBox="0 0 32 33" fill="none" xmlns="http://www.w3.org/2000/svg">
<rect x="0.386963" y="0.942871" width="31.5144" height="31.5144" rx="15.7572" fill="#40484D"/>
<path d="M21.6592 15.5002C21.5537 15.5071 21.4478 15.5071 21.3422 15.5002C20.7705 15.5008 20.2076 15.3618 19.7046 15.0956C19.2016 14.8295 18.7743 14.4448 18.4615 13.9762V19.1688C18.4615 19.9272 18.2318 20.6685 17.8015 21.299C17.3712 21.9295 16.7595 22.4209 16.044 22.7111C15.3284 23.0013 14.541 23.0773 13.7813 22.9293C13.0216 22.7814 12.3239 22.4162 11.7762 21.88C11.2285 21.3438 10.8555 20.6606 10.7044 19.9169C10.5533 19.1731 10.6309 18.4022 10.9273 17.7016C11.2237 17.001 11.7256 16.4022 12.3696 15.9809C13.0136 15.5596 13.7708 15.3347 14.5453 15.3347V15.3347H14.7848V17.2242C14.7051 17.217 14.625 17.217 14.5453 17.2242C14.0148 17.2242 13.506 17.4305 13.1309 17.7978C12.7557 18.1651 12.545 18.6632 12.545 19.1826C12.545 19.702 12.7557 20.2002 13.1309 20.5675C13.506 20.9347 14.0148 21.1411 14.5453 21.1411C15.0818 21.1486 15.5999 20.9499 15.9884 20.5876C16.3768 20.2253 16.6047 19.7283 16.6231 19.2033V10.3972H18.4685C18.5537 11.1824 18.9176 11.9134 19.4968 12.4628C20.076 13.0123 20.8338 13.3453 21.638 13.4038V15.4726" fill="white"/>
</svg>
