<svg width="17" height="17" viewBox="0 0 17 17" fill="none" xmlns="http://www.w3.org/2000/svg">
<path d="M4.85253 16.6459C5.57788 16.6459 6.16589 16.0579 6.16589 15.3326C6.16589 14.6072 5.57788 14.0192 4.85253 14.0192C4.12717 14.0192 3.53916 14.6072 3.53916 15.3326C3.53916 16.0579 4.12717 16.6459 4.85253 16.6459Z" fill="white"/>
<path d="M11.4194 16.6459C12.1447 16.6459 12.7327 16.0579 12.7327 15.3326C12.7327 14.6072 12.1447 14.0192 11.4194 14.0192C10.694 14.0192 10.106 14.6072 10.106 15.3326C10.106 16.0579 10.694 16.6459 11.4194 16.6459Z" fill="white"/>
<path d="M15.3595 2.85558H14.0461V1.54221C14.0461 1.36805 13.9769 1.20102 13.8538 1.07787C13.7306 0.954715 13.5636 0.885529 13.3894 0.885529C13.2153 0.885529 13.0482 0.954715 12.9251 1.07787C12.8019 1.20102 12.7327 1.36805 12.7327 1.54221V2.85558H11.4194C11.2452 2.85558 11.0782 2.92477 10.955 3.04792C10.8319 3.17107 10.7627 3.3381 10.7627 3.51226C10.7627 3.68643 10.8319 3.85346 10.955 3.97661C11.0782 4.09976 11.2452 4.16895 11.4194 4.16895H12.7327V5.48232C12.7327 5.65648 12.8019 5.82351 12.9251 5.94666C13.0482 6.06981 13.2153 6.139 13.3894 6.139C13.5636 6.139 13.7306 6.06981 13.8538 5.94666C13.9769 5.82351 14.0461 5.65648 14.0461 5.48232V4.16895H15.3595C15.5336 4.16895 15.7007 4.09976 15.8238 3.97661C15.947 3.85346 16.0162 3.68643 16.0162 3.51226C16.0162 3.3381 15.947 3.17107 15.8238 3.04792C15.7007 2.92477 15.5336 2.85558 15.3595 2.85558Z" fill="white"/>
<path d="M14.5524 7.27244C14.4675 7.25655 14.3803 7.25767 14.2958 7.27574C14.2113 7.29381 14.1313 7.32846 14.0603 7.3777C13.9893 7.42693 13.9288 7.48976 13.8823 7.56255C13.8358 7.63534 13.8042 7.71663 13.7893 7.80172C13.7074 8.25625 13.4684 8.66756 13.1141 8.96379C12.7598 9.26002 12.3127 9.42235 11.8508 9.42242H3.81365L3.19637 4.16895H8.79263C8.96679 4.16895 9.13382 4.09976 9.25698 3.97661C9.38013 3.85346 9.44931 3.68643 9.44931 3.51226C9.44931 3.3381 9.38013 3.17107 9.25698 3.04792C9.13382 2.92477 8.96679 2.85558 8.79263 2.85558H3.04139L3.01381 2.62443C2.95722 2.14544 2.72688 1.70386 2.36644 1.38336C2.00601 1.06287 1.54052 0.885734 1.05821 0.885529H0.912421C0.738258 0.885529 0.571228 0.954715 0.448076 1.07787C0.324923 1.20102 0.255737 1.36805 0.255737 1.54221C0.255737 1.71638 0.324923 1.88341 0.448076 2.00656C0.571228 2.12971 0.738258 2.1989 0.912421 2.1989H1.05821C1.21905 2.19892 1.37429 2.25797 1.49449 2.36485C1.61468 2.47173 1.69147 2.61901 1.71029 2.77875L2.61389 10.462C2.7077 11.261 3.09161 11.9978 3.69276 12.5325C4.29391 13.0672 5.07045 13.3625 5.87498 13.3625H12.7327C12.9069 13.3625 13.0739 13.2933 13.1971 13.1702C13.3202 13.047 13.3894 12.88 13.3894 12.7058C13.3894 12.5317 13.3202 12.3646 13.1971 12.2415C13.0739 12.1183 12.9069 12.0492 12.7327 12.0492H5.87498C5.46752 12.0492 5.07006 11.923 4.73735 11.6878C4.40464 11.4525 4.15304 11.1199 4.01722 10.7358H11.8508C12.6205 10.7359 13.3658 10.4655 13.9565 9.97195C14.5472 9.47839 14.9456 8.793 15.0823 8.0355C15.0977 7.9506 15.0961 7.86351 15.0778 7.7792C15.0595 7.69489 15.0247 7.61502 14.9755 7.54416C14.9263 7.47329 14.8636 7.41282 14.791 7.3662C14.7184 7.31958 14.6373 7.28771 14.5524 7.27244Z" fill="white"/>
</svg>
