<svg xmlns="http://www.w3.org/2000/svg" fill="none" viewBox="0 0 57 57">
  <path fill="#fff" d="m55.92 48.248-5.464-10.863a.82.82 0 0 0-1.285-.238 2.09 2.09 0 0 1-1.413.546 2.11 2.11 0 0 1-1.691-3.365c.312-.42.77-.71 1.283-.811a.822.822 0 0 0 .572-1.171l-1.376-2.74a3.838 3.838 0 0 0-3.45-2.125c-.145 0-.282 0-.422.024a356.044 356.044 0 0 0-.158-6.046 11.609 11.609 0 0 0-1.71-5.688.823.823 0 0 0-1.365-.052.821.821 0 0 0-.035.912 9.977 9.977 0 0 1 1.47 4.878c.074 2.155.13 4.35.167 6.551a3.864 3.864 0 0 0-1.399 1.54l-4.017 7.985c-1.553-2.415-3.732-4.285-6.27-4.285-4.428 0-7.755 5.687-8.599 10.037h-.053a16.793 16.793 0 0 0-3.073-6.792v-4.708c.846.017 1.697.03 2.547.03 2.132 0 4.271-.053 6.39-.157a2.93 2.93 0 0 0 2.775-2.59 24.483 24.483 0 0 0 0-5.814 2.926 2.926 0 0 0-2.775-2.59 130.82 130.82 0 0 0-8.653-.137 9.883 9.883 0 0 1 5.62-7.729h11.656c.819.386 1.58.882 2.263 1.476a.83.83 0 0 0 .88.126.82.82 0 0 0 .198-1.368c-.37-.317-.76-.612-1.165-.883a3.039 3.039 0 0 0-1.055-5.32v-2.9A3.429 3.429 0 0 0 32.886.554h-7.03a3.432 3.432 0 0 0-3.424 3.427v2.9a3.04 3.04 0 0 0-2.032 3.985c.196.527.534.989.977 1.335a11.571 11.571 0 0 0-5.161 9.258c-.154 4.44-.228 8.93-.218 13.383a6.12 6.12 0 0 0-3.88-1.526c-2.008 0-4.017 1.221-5.69 3.436a.82.82 0 1 0 1.309.987c.786-1.037 2.396-2.783 4.375-2.783 1.543 0 3.163 1.08 4.565 3.041a14.962 14.962 0 0 1 2.344 5.353H5.169a15.05 15.05 0 0 1 .984-2.934.82.82 0 0 0-1.496-.67 16.152 16.152 0 0 0-1.158 3.61H2.387A2.13 2.13 0 0 0 .26 45.486a2.127 2.127 0 0 0 2.128 2.128h.402c.137 1.254.368 2.509.593 3.727.16.866.334 1.763.452 2.64a2.623 2.623 0 0 0 2.296 2.235c3.97.49 7.986.49 11.957 0 .382-.043.75-.17 1.078-.372a5.5 5.5 0 0 0 2.765.74h7.434c2-.007 3.999-.129 5.985-.365a2.621 2.621 0 0 0 1.483-.686 19.232 19.232 0 0 0 18.183-3.095 3.396 3.396 0 0 0 .914-4.165l-.01-.024ZM24.054 3.981a1.783 1.783 0 0 1 1.784-1.784h7.03a1.788 1.788 0 0 1 1.788 1.784v2.787H24.052l.003-2.787Zm-.82 4.43H35.48a1.403 1.403 0 0 1 0 2.8H23.235a1.404 1.404 0 0 1-1.47-1.4 1.402 1.402 0 0 1 1.47-1.4Zm3.254 13.944a1.292 1.292 0 0 1 1.225 1.145 22.985 22.985 0 0 1 0 5.427 1.291 1.291 0 0 1-1.225 1.144c-2.94.144-5.908.187-8.844.127.027-2.66.084-5.323.17-7.973 2.883-.053 5.798 0 8.674.13Zm14.621 7.99a2.182 2.182 0 0 1 1.985-1.224 2.185 2.185 0 0 1 1.985 1.224l.961 1.907a3.748 3.748 0 0 0 3.367 6.698l4.593 9.131a17.441 17.441 0 0 1-8 3.57 17.64 17.64 0 0 1-7.883-.478c.214-1.171.431-2.37.562-3.574h.402a2.13 2.13 0 0 0 2.129-2.128 2.127 2.127 0 0 0-2.13-2.127h-1.124a16.84 16.84 0 0 0-1.362-4.015l4.515-8.984Zm-16.318 7.642c1.402-1.96 3.012-3.041 4.566-3.041 1.553 0 3.163 1.08 4.562 3.04a15.03 15.03 0 0 1 2.363 5.354H22.432a14.962 14.962 0 0 1 2.343-5.353h.017ZM1.889 45.465a.488.488 0 0 1 .488-.489h36.705a.49.49 0 1 1 0 .974H2.387a.487.487 0 0 1-.498-.485Zm18.344 9.07a2.55 2.55 0 0 0 .15-.575l.265-1.864c0-.047 0-.07.083-.07.084 0 .074.023.08.07.098.686.188 1.338.265 1.864.051.327.165.642.335.926a3.878 3.878 0 0 1-1.178-.35Zm14.922.03c-3.848.472-7.74.472-11.588 0a1.005 1.005 0 0 1-.867-.836c-.074-.539-.168-1.178-.262-1.86a1.723 1.723 0 0 0-3.417 0c-.094.669-.184 1.338-.261 1.856a1.003 1.003 0 0 1-.867.84 47.591 47.591 0 0 1-11.586 0 .984.984 0 0 1-.86-.84c-.13-.906-.298-1.82-.462-2.703-.207-1.127-.422-2.288-.552-3.43h32.593c-.13 1.145-.334 2.306-.552 3.44-.164.88-.335 1.79-.462 2.693a.983.983 0 0 1-.857.84Zm18.83-3.436a17.601 17.601 0 0 1-16.363 2.918v-.087c.057-.385.12-.777.191-1.168 2.746.778 5.63.939 8.446.472a19.195 19.195 0 0 0 8.368-3.597 1.74 1.74 0 0 1-.65 1.462h.007Z"/>
  <path fill="#fff" d="M43.858 47.97a3.644 3.644 0 0 0 3.013 1.583 3.65 3.65 0 0 0 3.323-5.143 3.647 3.647 0 0 0-3.982-2.091 3.65 3.65 0 0 0-2.987 3.36c-.051.813.172 1.62.633 2.292Zm1.035-2.435a2.007 2.007 0 0 1 3.217-1.229 2.007 2.007 0 1 1-3.217 1.229ZM40.414 43.042a2.68 2.68 0 0 0 1.995-.425 2.677 2.677 0 0 0-1.024-4.814 2.679 2.679 0 0 0-3.343 3.193 2.676 2.676 0 0 0 2.372 2.046Zm-.522-2.803a1.024 1.024 0 0 1 2.012.371 1.024 1.024 0 1 1-2.009-.371h-.003Z"/>
</svg>