<svg width="32" height="33" viewBox="0 0 32 33" fill="none" xmlns="http://www.w3.org/2000/svg">
<rect x="0.386963" y="0.613525" width="31.5144" height="31.5144" rx="15.7572" fill="#A4BC46"/>
<path d="M22.4468 19.0117C22.4468 21.3059 21.0791 22.6736 18.7849 22.6736H18.0348C17.6882 22.6736 17.4045 22.39 17.4045 22.0434V18.4066C17.4045 18.2364 17.5432 18.0915 17.7134 18.0915L18.8227 18.0725C18.9109 18.0662 18.9866 18.0032 19.0055 17.915L19.2261 16.7111C19.245 16.5977 19.1567 16.4905 19.037 16.4905L17.6945 16.5094C17.518 16.5094 17.3793 16.3708 17.373 16.2006L17.3478 14.6564C17.3478 14.5555 17.4297 14.4673 17.5369 14.4673L19.0496 14.4421C19.1567 14.4421 19.2387 14.3601 19.2387 14.253L19.2135 12.7403C19.2135 12.6331 19.1315 12.5512 19.0244 12.5512L17.3226 12.5764C16.2763 12.5953 15.4443 13.4525 15.4632 14.4988L15.4948 16.2321C15.5011 16.4086 15.3624 16.5472 15.1859 16.5535L14.4296 16.5661C14.3224 16.5661 14.2405 16.6481 14.2405 16.7552L14.2594 17.9528C14.2594 18.0599 14.3413 18.1419 14.4485 18.1419L15.2048 18.1293C15.3813 18.1293 15.52 18.2679 15.5263 18.4381L15.583 22.0308C15.5893 22.3837 15.3057 22.6736 14.9527 22.6736H13.503C11.2088 22.6736 9.84106 21.3059 9.84106 19.0054V13.7298C9.84106 11.4356 11.2088 10.0679 13.503 10.0679H18.7849C21.0791 10.0679 22.4468 11.4356 22.4468 13.7298V19.0117V19.0117Z" fill="white"/>
</svg>
