<svg xmlns="http://www.w3.org/2000/svg" fill="none" viewBox="0 0 58 58">
  <path fill="#fff" d="M57.996 27.212a27.957 27.957 0 0 0-2.103-10.715 27.812 27.812 0 0 0-6.043-9.074.843.843 0 0 0-1.187 0l-29.328 29.52c-2.18-1.161-4.173-.824-6.458-.422-1.04-3.768-3.64-5.227-3.778-5.3a.837.837 0 0 0-1.096.365.852.852 0 0 0 .298 1.123c.027 0 1.788 1.013 2.734 3.586a7.931 7.931 0 0 0-4.07.125 7.972 7.972 0 0 0-3.478 2.13c-2.66-9.764.54-24.418 12.93-24.4 5.511 0 10.376 3.649 12.194 8.835a.844.844 0 0 0 .747.562.834.834 0 0 0 .803-.48.85.85 0 0 0 .034-.646 14.879 14.879 0 0 0-5.67-7.472 8.894 8.894 0 0 1 1.49-3.49l1.106-1.55c1.064-1.493-.58-3.563-2.27-2.786L22.21 8.335a8.606 8.606 0 0 1 1.885-5.821A1.567 1.567 0 0 0 24.03.617a1.548 1.548 0 0 0-1.837-.43c-2.348 1.078-4.616 2.027-5.877 4.501-1.248-2.444-3.536-3.427-5.875-4.5a1.54 1.54 0 0 0-1.837.429 1.566 1.566 0 0 0-.065 1.897 8.602 8.602 0 0 1 1.882 5.82L7.784 7.124C6.107 6.363 4.43 8.386 5.51 9.908l1.107 1.55A8.808 8.808 0 0 1 8.117 15C.4 20.274-.418 32.01 2.224 40.2.11 43.723.011 49.051 1.85 52.694a.844.844 0 0 0 .813.464.834.834 0 0 0 .735-.58.849.849 0 0 0-.052-.647C1.333 47.9 1.924 41.062 6.117 38.604c1.838-1.073 3.445-.827 5.368-.435.079.54.118 1.085.117 1.63a.853.853 0 0 0 .5.852.838.838 0 0 0 1.137-.505.852.852 0 0 0 .04-.346c0-.542-.032-1.083-.097-1.621 1.98-.365 3.647-.726 5.539.361 5.317 3.056 5.328 13.455-.02 16.46a6.055 6.055 0 0 1-4.948.453 4.478 4.478 0 0 0-2.775 0 5.966 5.966 0 0 1-5.23-.753.838.838 0 0 0-1.288.545.851.851 0 0 0 .362.866 7.723 7.723 0 0 0 6.67.952 2.812 2.812 0 0 1 1.747 0 7.73 7.73 0 0 0 6.28-.587 8.394 8.394 0 0 0 1.799-1.35 11.078 11.078 0 0 0 7.188 2.364 11.086 11.086 0 0 0 7.03-2.807A27.78 27.78 0 0 0 51.642 45a28.1 28.1 0 0 0 6.332-17.774l.02-.014ZM7.982 10.472 6.875 8.92c-.06-.192 0-.28.212-.257 1.254.578 2.56 1.101 3.777 1.76a.844.844 0 0 0 1.238-.747c0-2.9-.077-5.294-1.909-7.742 2.728 1.253 5.284 2.759 5.284 6.236a.85.85 0 0 0 .27.55.839.839 0 0 0 1.407-.55c0-3.457 2.553-4.983 5.284-6.236-1.832 2.448-1.912 4.842-1.912 7.742a.852.852 0 0 0 .41.726.839.839 0 0 0 .828.02c1.218-.675 2.523-1.181 3.78-1.759.202-.023.272.065.209.257l-1.107 1.553a10.603 10.603 0 0 0-1.648 3.576 14.685 14.685 0 0 0-13.362.04 10.54 10.54 0 0 0-1.654-3.616Zm14.426 43.343c2.76-4.028 2.633-10.882-.476-14.714a9.359 9.359 0 0 1 6.246-2.364c1.506 0 2.99.36 4.329 1.053a9.488 9.488 0 0 1 3.372 2.927 9.59 9.59 0 0 1 1.268 8.618 9.54 9.54 0 0 1-2.384 3.786 9.457 9.457 0 0 1-3.84 2.27 9.413 9.413 0 0 1-8.515-1.566v-.01Zm15.053-1.35a11.216 11.216 0 0 0 1.513-3.404 23.452 23.452 0 0 0 9.243-6.813 23.66 23.66 0 0 0 4.931-10.407.85.85 0 0 0-.123-.635.84.84 0 0 0-1.164-.239.846.846 0 0 0-.36.537 21.99 21.99 0 0 1-4.256 9.246 21.808 21.808 0 0 1-7.949 6.312c.466-6.415-4.734-12.043-11.118-12.043a11.01 11.01 0 0 0-7.31 2.745L46.14 12.329a21.771 21.771 0 0 1 5.783 15.106.85.85 0 0 0 .83.783.84.84 0 0 0 .571-.215.85.85 0 0 0 .277-.547 23.462 23.462 0 0 0-6.277-16.322l1.916-1.925a26.353 26.353 0 0 1 6.295 11.665 26.466 26.466 0 0 1-.166 13.272 26.342 26.342 0 0 1-6.585 11.501 26.101 26.101 0 0 1-11.326 6.8l.003.017Z"/>
  <path fill="#fff" d="M40.772 36.663a.837.837 0 0 0-1.188 0 .848.848 0 0 0 0 1.195l1.269 1.28a.841.841 0 0 0 1.22.03.848.848 0 0 0 .169-.954.848.848 0 0 0-.202-.275l-1.268-1.276ZM45.311 32.544l-1.634-.736a.837.837 0 0 0-1.18.402.852.852 0 0 0 .51 1.144l1.633.733a.834.834 0 0 0 1.11-.43.844.844 0 0 0-.425-1.113h-.014ZM46.388 26.274l-1.781-.091h-.04a.84.84 0 0 0-.556.256.85.85 0 0 0 .512 1.432l1.781.088h.04a.836.836 0 0 0 .6-.232.847.847 0 0 0-.556-1.457v.004ZM43.704 22.222a.83.83 0 0 0 .269-.044l1.677-.567a.838.838 0 0 0 .485-.425.85.85 0 0 0-.377-1.134.836.836 0 0 0-.641-.045l-1.678.567a.84.84 0 0 0-.571.939.836.836 0 0 0 .836.71ZM16.316 24.48a.83.83 0 0 0 .593-.246l1.852-1.863a.848.848 0 0 0-.593-1.443.837.837 0 0 0-.594.247l-1.258 1.263-1.258-1.263a.837.837 0 0 0-1.434.598c0 .224.088.44.246.598l1.852 1.863a.835.835 0 0 0 .594.247ZM23.894 24.48a.83.83 0 0 0 .594-.246l1.852-1.863a.848.848 0 0 0-.594-1.443.837.837 0 0 0-.594.247l-1.258 1.263-1.261-1.263a.838.838 0 0 0-1.434.598.85.85 0 0 0 .246.598l1.859 1.877a.835.835 0 0 0 .594.246l-.004-.013ZM13.75 26.514 12.49 27.78l-1.258-1.267a.839.839 0 0 0-1.16.032.85.85 0 0 0-.027 1.167l1.851 1.86a.833.833 0 0 0 1.188 0l1.852-1.86a.85.85 0 0 0-.028-1.167.84.84 0 0 0-1.16-.032ZM19.476 29.573a.834.834 0 0 0 1.188 0l1.851-1.86a.848.848 0 0 0-.583-1.478.837.837 0 0 0-.604.279L20.07 27.78l-1.258-1.267a.839.839 0 0 0-1.16.032.85.85 0 0 0-.028 1.167l1.852 1.86ZM30.064 41.154a.841.841 0 0 0 .838-.845.841.841 0 0 0-.838-.844.841.841 0 0 0-.84.844c0 .467.376.845.84.845Z"/>
</svg>