<svg xmlns="http://www.w3.org/2000/svg" width="61" height="55" fill="none"><path fill="#C0DA71" d="M57.813 31.123H2.735c-.69 0-1.352-.274-1.84-.763a2.612 2.612 0 0 1-.764-1.843v-2.954c0-.691.275-1.354.764-1.843a2.602 2.602 0 0 1 1.84-.763h55.078c.69 0 1.351.275 1.84.763.487.49.761 1.152.761 1.843v2.954c0 .691-.274 1.354-.762 1.843a2.599 2.599 0 0 1-1.84.763ZM2.735 24.626a.938.938 0 0 0-.939.937v2.954a.942.942 0 0 0 .94.938h55.077a.935.935 0 0 0 .936-.938v-2.954a.939.939 0 0 0-.936-.937H2.735Z"/><path fill="#000" fillOpacity=".2" d="M57.813 31.123H2.735c-.69 0-1.352-.274-1.84-.763a2.612 2.612 0 0 1-.764-1.843v-2.954c0-.691.275-1.354.764-1.843a2.602 2.602 0 0 1 1.84-.763h55.078c.69 0 1.351.275 1.84.763.487.49.761 1.152.761 1.843v2.954c0 .691-.274 1.354-.762 1.843a2.599 2.599 0 0 1-1.84.763ZM2.735 24.626a.938.938 0 0 0-.939.937v2.954a.942.942 0 0 0 .94.938h55.077a.935.935 0 0 0 .936-.938v-2.954a.939.939 0 0 0-.936-.937H2.735Z"/><path fill="#C0DA71" d="M39.456 54.758H12.142a5.559 5.559 0 0 1-3.516-1.265 5.578 5.578 0 0 1-1.927-3.207l-3.93-19.69a.836.836 0 0 1 .974-.986.834.834 0 0 1 .658.652l3.93 19.69a3.906 3.906 0 0 0 1.35 2.245c.694.57 1.563.884 2.461.886h27.314a.832.832 0 0 1 .833.834.835.835 0 0 1-.833.834v.007Z"/><path fill="#000" fillOpacity=".2" d="M39.456 54.758H12.142a5.559 5.559 0 0 1-3.516-1.265 5.578 5.578 0 0 1-1.927-3.207l-3.93-19.69a.836.836 0 0 1 .974-.986.834.834 0 0 1 .658.652l3.93 19.69a3.906 3.906 0 0 0 1.35 2.245c.694.57 1.563.884 2.461.886h27.314a.832.832 0 0 1 .833.834.835.835 0 0 1-.833.834v.007Z"/><path fill="#C0DA71" d="M48.403 54.758h-4.817a.832.832 0 0 1-.832-.834.835.835 0 0 1 .832-.835h4.817a3.893 3.893 0 0 0 2.462-.885 3.906 3.906 0 0 0 1.348-2.245l3.94-19.737a.834.834 0 0 1 1.512-.293.835.835 0 0 1 .121.627l-3.94 19.73a5.577 5.577 0 0 1-1.927 3.207 5.559 5.559 0 0 1-3.516 1.265Z"/><path fill="#000" fillOpacity=".2" d="M48.403 54.758h-4.817a.832.832 0 0 1-.832-.834.835.835 0 0 1 .832-.835h4.817a3.893 3.893 0 0 0 2.462-.885 3.906 3.906 0 0 0 1.348-2.245l3.94-19.737a.834.834 0 0 1 1.512-.293.835.835 0 0 1 .121.627l-3.94 19.73a5.577 5.577 0 0 1-1.927 3.207 5.559 5.559 0 0 1-3.516 1.265Z"/><path fill="#C0DA71" d="M54.622 24.532a.811.811 0 0 1-.413-.113.828.828 0 0 1-.411-.83.833.833 0 0 1 .104-.308l3.521-6.11A8.394 8.394 0 0 0 54.36 5.717a8.356 8.356 0 0 0-11.43 3.069l-3.53 6.13a.833.833 0 1 1-1.443-.834l3.53-6.13a10.05 10.05 0 0 1 6.096-4.683 10.017 10.017 0 0 1 7.615 1.008 10.042 10.042 0 0 1 4.673 6.107 10.073 10.073 0 0 1-1.006 7.63l-3.52 6.11a.834.834 0 0 1-.723.407Z"/><path fill="#000" fillOpacity=".2" d="M54.622 24.532a.811.811 0 0 1-.413-.113.828.828 0 0 1-.411-.83.833.833 0 0 1 .104-.308l3.521-6.11A8.394 8.394 0 0 0 54.36 5.717a8.356 8.356 0 0 0-11.43 3.069l-3.53 6.13a.833.833 0 1 1-1.443-.834l3.53-6.13a10.05 10.05 0 0 1 6.096-4.683 10.017 10.017 0 0 1 7.615 1.008 10.042 10.042 0 0 1 4.673 6.107 10.073 10.073 0 0 1-1.006 7.63l-3.52 6.11a.834.834 0 0 1-.723.407Z"/><path fill="#C0DA71" d="M41.93 24.599a.844.844 0 0 1-.416-.11l-2.148-1.245a.834.834 0 1 1 .833-1.445l2.148 1.245a.828.828 0 0 1 .411.83.833.833 0 0 1-.827.725Z"/><path fill="#000" fillOpacity=".2" d="M41.93 24.599a.844.844 0 0 1-.416-.11l-2.148-1.245a.834.834 0 1 1 .833-1.445l2.148 1.245a.828.828 0 0 1 .411.83.833.833 0 0 1-.827.725Z"/><path fill="#C0DA71" d="M44.982 24.599a.832.832 0 0 1-.795-1.08.835.835 0 0 1 .292-.418 1.668 1.668 0 0 0 .391-2.177 1.667 1.667 0 0 0-.564-.563l-4.45-2.573a.834.834 0 0 1 .832-1.446l4.45 2.574a3.31 3.31 0 0 1 1.644 2.667 3.32 3.32 0 0 1-1.31 2.846.812.812 0 0 1-.49.17Z"/><path fill="#000" fillOpacity=".2" d="M44.982 24.599a.832.832 0 0 1-.795-1.08.835.835 0 0 1 .292-.418 1.668 1.668 0 0 0 .391-2.177 1.667 1.667 0 0 0-.564-.563l-4.45-2.573a.834.834 0 0 1 .832-1.446l4.45 2.574a3.31 3.31 0 0 1 1.644 2.667 3.32 3.32 0 0 1-1.31 2.846.812.812 0 0 1-.49.17Z"/><path fill="#C0DA71" d="M47.706 17.738c-.579 0-1.148-.155-1.648-.448l-6.692-3.871a.834.834 0 1 1 .833-1.445l6.691 3.871a1.64 1.64 0 0 0 2.245-.6 1.65 1.65 0 0 0-.6-2.25l-6.661-3.861a.834.834 0 0 1 .833-1.445l6.662 3.858a3.316 3.316 0 0 1 1.542 3.736 3.318 3.318 0 0 1-3.208 2.455h.003Z"/><path fill="#000" fillOpacity=".2" d="M47.706 17.738c-.579 0-1.148-.155-1.648-.448l-6.692-3.871a.834.834 0 1 1 .833-1.445l6.691 3.871a1.64 1.64 0 0 0 2.245-.6 1.65 1.65 0 0 0-.6-2.25l-6.661-3.861a.834.834 0 0 1 .833-1.445l6.662 3.858a3.316 3.316 0 0 1 1.542 3.736 3.318 3.318 0 0 1-3.208 2.455h.003Z"/><path fill="#C0DA71" d="M21.049 24.566a.831.831 0 0 1-.823-.725l-.666-4.979a5.573 5.573 0 0 1 1.324-4.403 5.554 5.554 0 0 1 4.179-1.901h1.795a4.346 4.346 0 0 1 3.421 1.669 4.365 4.365 0 0 1 3.424-1.669H35.5a5.543 5.543 0 0 1 4.168 1.907 5.566 5.566 0 0 1 1.318 4.397l-.666 4.926a.837.837 0 0 1-.608.729.832.832 0 0 1-1.041-.953l.666-4.925a3.903 3.903 0 0 0-.927-3.082 3.888 3.888 0 0 0-2.924-1.33H33.69a2.702 2.702 0 0 0-2.248 1.201 1.41 1.41 0 0 1-2.345 0 2.708 2.708 0 0 0-2.249-1.201h-1.795a3.878 3.878 0 0 0-2.925 1.33 3.894 3.894 0 0 0-.926 3.082l.666 4.979a.836.836 0 0 1-.712.94l-.107.008Z"/><path fill="#000" fillOpacity=".2" d="M21.049 24.566a.831.831 0 0 1-.823-.725l-.666-4.979a5.573 5.573 0 0 1 1.324-4.403 5.554 5.554 0 0 1 4.179-1.901h1.795a4.346 4.346 0 0 1 3.421 1.669 4.365 4.365 0 0 1 3.424-1.669H35.5a5.543 5.543 0 0 1 4.168 1.907 5.566 5.566 0 0 1 1.318 4.397l-.666 4.926a.837.837 0 0 1-.608.729.832.832 0 0 1-1.041-.953l.666-4.925a3.903 3.903 0 0 0-.927-3.082 3.888 3.888 0 0 0-2.924-1.33H33.69a2.702 2.702 0 0 0-2.248 1.201 1.41 1.41 0 0 1-2.345 0 2.708 2.708 0 0 0-2.249-1.201h-1.795a3.878 3.878 0 0 0-2.925 1.33 3.894 3.894 0 0 0-.926 3.082l.666 4.979a.836.836 0 0 1-.712.94l-.107.008Z"/><path fill="#C0DA71" d="M30.272 15.895a.832.832 0 0 1-.832-.834v-1.432a4.493 4.493 0 0 0-1.311-3.17 4.476 4.476 0 0 0-3.163-1.315h-1.172v.938a4.441 4.441 0 0 0 .972 2.79.837.837 0 0 1-.42 1.322.832.832 0 0 1-.882-.281 6.172 6.172 0 0 1-1.332-3.831V8.9a1.43 1.43 0 0 1 1.422-1.425h1.416a6.14 6.14 0 0 1 4.34 1.805 6.163 6.163 0 0 1 1.798 4.35v1.43a.833.833 0 0 1-.836.835Z"/><path fill="#000" fillOpacity=".2" d="M30.272 15.895a.832.832 0 0 1-.832-.834v-1.432a4.493 4.493 0 0 0-1.311-3.17 4.476 4.476 0 0 0-3.163-1.315h-1.172v.938a4.441 4.441 0 0 0 .972 2.79.837.837 0 0 1-.42 1.322.832.832 0 0 1-.882-.281 6.172 6.172 0 0 1-1.332-3.831V8.9a1.43 1.43 0 0 1 1.422-1.425h1.416a6.14 6.14 0 0 1 4.34 1.805 6.163 6.163 0 0 1 1.798 4.35v1.43a.833.833 0 0 1-.836.835Z"/><path fill="#C0DA71" d="M30.273 14.463a.832.832 0 0 1-.833-.834 6.167 6.167 0 0 1 1.8-4.35 6.143 6.143 0 0 1 4.342-1.804h1.406A1.424 1.424 0 0 1 38.41 8.9v1.182c0 1.39-.47 2.741-1.332 3.83a.833.833 0 1 1-1.303-1.04 4.441 4.441 0 0 0 .973-2.79v-.938h-1.173a4.48 4.48 0 0 0-3.163 1.316 4.496 4.496 0 0 0-1.313 3.17.833.833 0 0 1-.826.833Z"/><path fill="#000" fillOpacity=".2" d="M30.273 14.463a.832.832 0 0 1-.833-.834 6.167 6.167 0 0 1 1.8-4.35 6.143 6.143 0 0 1 4.342-1.804h1.406A1.424 1.424 0 0 1 38.41 8.9v1.182c0 1.39-.47 2.741-1.332 3.83a.833.833 0 1 1-1.303-1.04 4.441 4.441 0 0 0 .973-2.79v-.938h-1.173a4.48 4.48 0 0 0-3.163 1.316 4.496 4.496 0 0 0-1.313 3.17.833.833 0 0 1-.826.833Z"/><path fill="#C0DA71" d="M5.563 24.512a.832.832 0 0 1-.832-.834v-7.713a4.409 4.409 0 0 1 1.708-3.47l2.295-1.772a1.538 1.538 0 0 0 .597-1.212V5.386a.835.835 0 0 1 .833-.834.832.832 0 0 1 .832.834v4.125a3.212 3.212 0 0 1-1.246 2.533l-2.298 1.772a2.726 2.726 0 0 0-1.056 2.15v7.722a.835.835 0 0 1-.833.824Z"/><path fill="#000" fillOpacity=".2" d="M5.563 24.512a.832.832 0 0 1-.832-.834v-7.713a4.409 4.409 0 0 1 1.708-3.47l2.295-1.772a1.538 1.538 0 0 0 .597-1.212V5.386a.835.835 0 0 1 .833-.834.832.832 0 0 1 .832.834v4.125a3.212 3.212 0 0 1-1.246 2.533l-2.298 1.772a2.726 2.726 0 0 0-1.056 2.15v7.722a.835.835 0 0 1-.833.824Z"/><path fill="#C0DA71" d="M21.369 15.895a.829.829 0 0 1-.803-.62 2.73 2.73 0 0 0-.97-1.459l-2.294-1.772a3.205 3.205 0 0 1-1.246-2.533V5.386a.835.835 0 0 1 .833-.834.832.832 0 0 1 .832.834v4.125a1.537 1.537 0 0 0 .593 1.212l2.299 1.772a4.372 4.372 0 0 1 1.562 2.352.833.833 0 0 1-.806 1.048Z"/><path fill="#000" fillOpacity=".2" d="M21.369 15.895a.829.829 0 0 1-.803-.62 2.73 2.73 0 0 0-.97-1.459l-2.294-1.772a3.205 3.205 0 0 1-1.246-2.533V5.386a.835.835 0 0 1 .833-.834.832.832 0 0 1 .832.834v4.125a1.537 1.537 0 0 0 .593 1.212l2.299 1.772a4.372 4.372 0 0 1 1.562 2.352.833.833 0 0 1-.806 1.048Z"/><path fill="#C0DA71" d="M16.889 6.074h-6.726a2.603 2.603 0 0 1-1.781-.796 2.612 2.612 0 0 1 1.781-4.42h6.726c.674.024 1.313.309 1.781.795a2.612 2.612 0 0 1-1.781 4.42Zm-6.726-3.548a.939.939 0 0 0-.883.94.942.942 0 0 0 .883.939h6.726a.939.939 0 0 0 .883-.94.942.942 0 0 0-.883-.939h-6.726Z"/><path fill="#000" fillOpacity=".2" d="M16.889 6.074h-6.726a2.603 2.603 0 0 1-1.781-.796 2.612 2.612 0 0 1 1.781-4.42h6.726c.674.024 1.313.309 1.781.795a2.612 2.612 0 0 1-1.781 4.42Zm-6.726-3.548a.939.939 0 0 0-.883.94.942.942 0 0 0 .883.939h6.726a.939.939 0 0 0 .883-.94.942.942 0 0 0-.883-.939h-6.726Z"/><path fill="#C0DA71" d="M20.246 18.478h-5.939a.832.832 0 0 1-.833-.834.835.835 0 0 1 .833-.834h5.94a.832.832 0 0 1 .832.834.835.835 0 0 1-.833.834Z"/><path fill="#000" fillOpacity=".2" d="M20.246 18.478h-5.939a.832.832 0 0 1-.833-.834.835.835 0 0 1 .833-.834h5.94a.832.832 0 0 1 .832.834.835.835 0 0 1-.833.834Z"/><path fill="#C0DA71" d="M10.18 18.478H5.703a.832.832 0 0 1-.832-.834.835.835 0 0 1 .832-.834h4.477a.832.832 0 0 1 .833.834.835.835 0 0 1-.833.834Z"/><path fill="#000" fillOpacity=".2" d="M10.18 18.478H5.703a.832.832 0 0 1-.832-.834.835.835 0 0 1 .832-.834h4.477a.832.832 0 0 1 .833.834.835.835 0 0 1-.833.834Z"/><path fill="#C0DA71" d="M36.821 42.94H23.727a3.484 3.484 0 0 1-2.396-1.06 3.498 3.498 0 0 1 0-4.864 3.484 3.484 0 0 1 2.396-1.06h13.094a3.484 3.484 0 0 1 2.396 1.06 3.498 3.498 0 0 1 0 4.864 3.484 3.484 0 0 1-2.396 1.06Zm-13.094-5.316a1.82 1.82 0 0 0-1.744 1.824 1.827 1.827 0 0 0 1.744 1.824h13.094a1.821 1.821 0 0 0 1.744-1.824 1.828 1.828 0 0 0-1.744-1.824H23.727Z"/><path fill="#000" fillOpacity=".2" d="M36.821 42.94H23.727a3.484 3.484 0 0 1-2.396-1.06 3.498 3.498 0 0 1 0-4.864 3.484 3.484 0 0 1 2.396-1.06h13.094a3.484 3.484 0 0 1 2.396 1.06 3.498 3.498 0 0 1 0 4.864 3.484 3.484 0 0 1-2.396 1.06Zm-13.094-5.316a1.82 1.82 0 0 0-1.744 1.824 1.827 1.827 0 0 0 1.744 1.824h13.094a1.821 1.821 0 0 0 1.744-1.824 1.828 1.828 0 0 0-1.744-1.824H23.727Z"/></svg>