<svg width="32" height="33" viewBox="0 0 32 33" fill="none" xmlns="http://www.w3.org/2000/svg">
<rect x="0.386963" y="0.946045" width="31.5144" height="31.5144" rx="15.7572" fill="#40484D"/>
<path d="M18.7893 10.4004H13.5049C11.2095 10.4004 9.84106 11.7681 9.84106 14.0624V19.3379C9.84106 21.6384 11.2095 23.0062 13.5049 23.0062H18.783C21.0784 23.0062 22.4468 21.6384 22.4468 19.3442V14.0624C22.4531 11.7681 21.0847 10.4004 18.7893 10.4004ZM16.1471 19.1488C14.7976 19.1488 13.7004 18.0521 13.7004 16.7033C13.7004 15.3545 14.7976 14.2578 16.1471 14.2578C17.4966 14.2578 18.5938 15.3545 18.5938 16.7033C18.5938 18.0521 17.4966 19.1488 16.1471 19.1488ZM19.8803 13.4762C19.8487 13.5518 19.8046 13.6212 19.7478 13.6842C19.6848 13.7409 19.6154 13.785 19.5397 13.8166C19.4641 13.8481 19.3821 13.867 19.3001 13.867C19.1298 13.867 18.9722 13.8039 18.8524 13.6842C18.7956 13.6212 18.7515 13.5518 18.72 13.4762C18.6884 13.4006 18.6695 13.3186 18.6695 13.2367C18.6695 13.1548 18.6884 13.0728 18.72 12.9972C18.7515 12.9152 18.7956 12.8522 18.8524 12.7892C18.9974 12.6442 19.2181 12.5749 19.4199 12.619C19.4641 12.6253 19.5019 12.6379 19.5397 12.6568C19.5776 12.6694 19.6154 12.6883 19.6532 12.7135C19.6848 12.7325 19.7163 12.764 19.7478 12.7892C19.8046 12.8522 19.8487 12.9152 19.8803 12.9972C19.9118 13.0728 19.9307 13.1548 19.9307 13.2367C19.9307 13.3186 19.9118 13.4006 19.8803 13.4762Z" fill="white"/>
</svg>
