<svg width="20" height="20" viewBox="0 0 20 20" fill="none" xmlns="http://www.w3.org/2000/svg">
<path d="M13.1911 4.10303C12.5258 4.1135 11.8751 4.30136 11.3046 4.64766C10.7341 4.99396 10.264 5.48642 9.9418 6.07532C9.61961 5.48642 9.14953 4.99396 8.57901 4.64766C8.0085 4.30136 7.35777 4.1135 6.69252 4.10303C5.63204 4.14964 4.6329 4.61896 3.91338 5.40846C3.19386 6.19797 2.81244 7.24347 2.85247 8.31656C2.85247 11.0341 5.67993 14.0021 8.05131 16.0145C8.58078 16.4646 9.25021 16.7114 9.9418 16.7114C10.6334 16.7114 11.3028 16.4646 11.8323 16.0145C14.2037 14.0021 17.0311 11.0341 17.0311 8.31656C17.0712 7.24347 16.6897 6.19797 15.9702 5.40846C15.2507 4.61896 14.2516 4.14964 13.1911 4.10303ZM11.0731 15.1C10.7565 15.3698 10.3558 15.5178 9.9418 15.5178C9.52781 15.5178 9.12713 15.3698 8.81046 15.1C5.77504 12.5235 4.03402 10.0516 4.03402 8.31656C3.99364 7.56034 4.25046 6.81865 4.74849 6.25324C5.24651 5.68783 5.94533 5.34458 6.69252 5.29836C7.43972 5.34458 8.13853 5.68783 8.63656 6.25324C9.13458 6.81865 9.39141 7.56034 9.35102 8.31656C9.35102 8.47507 9.41326 8.62709 9.52405 8.73917C9.63485 8.85125 9.78511 8.91422 9.9418 8.91422C10.0985 8.91422 10.2487 8.85125 10.3595 8.73917C10.4703 8.62709 10.5326 8.47507 10.5326 8.31656C10.4922 7.56034 10.749 6.81865 11.247 6.25324C11.7451 5.68783 12.4439 5.34458 13.1911 5.29836C13.9383 5.34458 14.6371 5.68783 15.1351 6.25324C15.6331 6.81865 15.89 7.56034 15.8496 8.31656C15.8496 10.0516 14.1085 12.5235 11.0731 15.0977V15.1Z" fill="#272E32"/>
</svg>
