<svg width="20" height="19" viewBox="0 0 20 19" fill="none" xmlns="http://www.w3.org/2000/svg">
<path d="M16.7994 7.79915C15.8561 6.26284 13.7103 3.6853 9.94438 3.6853C6.17842 3.6853 4.0327 6.26284 3.08939 7.79915C2.79778 8.27081 2.64331 8.81438 2.64331 9.3689C2.64331 9.92343 2.79778 10.467 3.08939 10.9387C4.0327 12.475 6.17842 15.0525 9.94438 15.0525C13.7103 15.0525 15.8561 12.475 16.7994 10.9387C17.091 10.467 17.2454 9.92343 17.2454 9.3689C17.2454 8.81438 17.091 8.27081 16.7994 7.79915ZM15.7624 10.3019C14.9523 11.6192 13.1186 13.8361 9.94438 13.8361C6.7702 13.8361 4.93648 11.6192 4.12637 10.3019C3.95311 10.0215 3.86134 9.69847 3.86134 9.3689C3.86134 9.03934 3.95311 8.71628 4.12637 8.43593C4.93648 7.11857 6.7702 4.9017 9.94438 4.9017C13.1186 4.9017 14.9523 7.11614 15.7624 8.43593C15.9356 8.71628 16.0274 9.03934 16.0274 9.3689C16.0274 9.69847 15.9356 10.0215 15.7624 10.3019Z" fill="#272E32"/>
<path d="M9.94431 6.32788C9.34286 6.32788 8.75491 6.50623 8.25483 6.84038C7.75474 7.17453 7.36497 7.64946 7.1348 8.20513C6.90464 8.7608 6.84442 9.37224 6.96175 9.96213C7.07909 10.552 7.36872 11.0939 7.79401 11.5192C8.2193 11.9445 8.76115 12.2341 9.35104 12.3514C9.94093 12.4688 10.5524 12.4085 11.108 12.1784C11.6637 11.9482 12.1386 11.5584 12.4728 11.0583C12.8069 10.5583 12.9853 9.97032 12.9853 9.36887C12.9843 8.56264 12.6636 7.78972 12.0935 7.21963C11.5235 6.64955 10.7505 6.32885 9.94431 6.32788ZM9.94431 11.1935C9.58344 11.1935 9.23067 11.0864 8.93062 10.886C8.63057 10.6855 8.3967 10.4005 8.2586 10.0671C8.12051 9.73371 8.08437 9.36684 8.15477 9.01291C8.22518 8.65897 8.39895 8.33386 8.65413 8.07869C8.9093 7.82351 9.23441 7.64974 9.58835 7.57933C9.94228 7.50893 10.3091 7.54506 10.6425 7.68316C10.9759 7.82126 11.2609 8.05513 11.4614 8.35518C11.6619 8.65523 11.7689 9.008 11.7689 9.36887C11.7689 9.85278 11.5767 10.3169 11.2345 10.659C10.8923 11.0012 10.4282 11.1935 9.94431 11.1935Z" fill="#272E32"/>
</svg>
