<svg xmlns="http://www.w3.org/2000/svg" fill="none" viewBox="0 0 50 42">
  <path fill="#fff" d="M43.806 6.787C40.308 3.754 35.363 1.611 29.872.75c-4.68-.759-9.442-.899-14.159-.417C11 .877 7.323 2.178 5.068 4.087c-.119.1-.23.204-.336.31-3.08 2.38-4.683 5.13-4.636 7.95.04 2.453.815 4.339 2.357 5.774 1.346 1.252 3.127 2.022 5.002 2.84 2.326 1.001 4.733 2.063 6.629 4.138 1.895 2.076 2.572 4.259 3.18 6.321.516 1.736 1.048 3.535 2.357 5.203 1.451 1.866 3.63 3.314 6.854 4.556 1.306.486 2.692.73 4.087.717a15.286 15.286 0 0 0 6.958-1.759c3.03-1.568 7.218-4.892 10.073-11.84a20.056 20.056 0 0 0 2.147-8.905c0-4.862-2.053-9.23-5.934-12.605Zm-6.972 32.055c-3.296 1.71-6.975 2.07-9.834.968-6.443-2.476-7.311-5.41-8.318-8.804-.626-2.115-1.346-4.515-3.504-6.888-2.108-2.31-4.774-3.474-7.13-4.499-3.579-1.558-6.396-2.79-6.48-7.298a6.358 6.358 0 0 1 .838-3.187V9.6c0 2.64.787 4.629 2.41 6.077 1.417 1.272 3.275 1.986 5.238 2.743 2.397.928 4.878 1.886 6.756 3.945 1.879 2.06 2.492 4.339 3.077 6.515.529 1.975 1.03 3.844 2.394 5.473 1.525 1.815 3.861 3.003 7.349 3.67 3.892.79 7.94.026 11.267-2.128a17.33 17.33 0 0 1-4.063 2.947Zm9.483-11.276a.718.718 0 0 0-.064.123.49.49 0 0 0-.027.06 18.141 18.141 0 0 1-4.686 5.874 13.951 13.951 0 0 1-8.827 3.26 14.51 14.51 0 0 1-2.807-.283c-6.797-1.355-7.595-4.339-8.605-8.097-.6-2.246-1.282-4.789-3.407-7.121-2.124-2.333-4.877-3.381-7.318-4.339-3.747-1.445-6.706-2.586-6.706-7.456 0-1.705.727-3.183 2.161-4.398 2.825-2.393 8.39-3.698 14.984-3.698 2.89.009 5.777.24 8.631.69 5.215.822 9.901 2.844 13.187 5.698 3.555 3.083 5.433 7.062 5.433 11.504a18.587 18.587 0 0 1-1.95 8.183Z"/>
  <path fill="#fff" d="M45.435 20.203a.745.745 0 0 0-.538.171.732.732 0 0 0-.26.497 14.777 14.777 0 0 1-4.74 9.515c-.966-.761-1.346-1.986-1.929-3.872a37.532 37.532 0 0 0-2.265-5.917c-1.125-2.28-3.212-4.211-5.387-5.733 1.633-.945 5.579-2.72 11.783-2.443a12.175 12.175 0 0 1 2.356 5.21.73.73 0 0 0 .254.43c.133.11.3.17.473.17a.588.588 0 0 0 .132 0 .74.74 0 0 0 .59-.565.726.726 0 0 0 .006-.286 13.714 13.714 0 0 0-2.838-6.087l-.034-.04a16.518 16.518 0 0 0-4.975-4.092c-3.66-2.002-8.198-3.124-14.274-3.577-5.747-.431-10.409.19-14.26 1.895-1.794.794-3 1.89-3.491 3.144v.03a3.644 3.644 0 0 0-.226 1.001c-.12 1.435.694 2.96 2.128 3.975.73.494 1.523.892 2.356 1.185a.746.746 0 0 0 1.002-.405.73.73 0 0 0-.473-.964 8.928 8.928 0 0 1-2.02-1c-.791-.562-1.606-1.56-1.515-2.67.004-.052.01-.104.02-.154 3.468-.067 7.407.614 9.271.984v.194a3.717 3.717 0 0 0 .753 2.252A3.771 3.771 0 0 0 19.3 14.4a3.802 3.802 0 0 0 2.391-.096 3.764 3.764 0 0 0 1.851-1.504c2.461 1.085 8.702 4.172 10.82 8.474a36.425 36.425 0 0 1 2.181 5.7c.583 1.886 1.034 3.337 2.155 4.368a11.85 11.85 0 0 1-6.06 2.03 9.77 9.77 0 0 1-4.4-.795 5.58 5.58 0 0 1-2.309-1.725c-.59-.808-.852-1.826-1.131-2.907l-.044-.157c-.64-2.456-1.444-5.033-2.993-7.232-1.683-2.383-4.265-4.355-7.699-5.857a.743.743 0 0 0-.937.387.725.725 0 0 0 .342.948c3.177 1.395 5.56 3.194 7.069 5.34 1.414 2.002 2.168 4.439 2.774 6.761l.044.157c.3 1.162.612 2.363 1.363 3.398a7.019 7.019 0 0 0 2.905 2.202 11.09 11.09 0 0 0 4.528.935h.539a13.223 13.223 0 0 0 7.689-2.917h.02a16.005 16.005 0 0 0 5.686-10.877.724.724 0 0 0-.37-.742.741.741 0 0 0-.28-.089Zm-22.784-9.26c-.02.423-.17.83-.43 1.167a2.292 2.292 0 0 1-1.14.828c-.46.15-.954.152-1.414.007a2.292 2.292 0 0 1-1.149-.815 2.26 2.26 0 0 1-.449-1.328c.014-.42.13-.831.337-1.198.258-.427.65-.758 1.117-.942a2.311 2.311 0 0 1 2.676.738c.303.397.467.881.466 1.379-.007.05-.01.107-.014.16v.003Zm1.43.45a3.711 3.711 0 0 0-.5-2.571 3.766 3.766 0 0 0-2.08-1.614 3.8 3.8 0 0 0-2.638.135 3.756 3.756 0 0 0-1.901 1.817 50.648 50.648 0 0 0-8.834-1.028 6.43 6.43 0 0 1 2.02-1.335c3.623-1.602 8.053-2.179 13.547-1.772 5.86.437 10.203 1.519 13.674 3.404a15.447 15.447 0 0 1 3.407 2.493c-6.632 0-10.54 2.193-11.81 3.04A37.372 37.372 0 0 0 24.1 11.39l-.017.003Z"/>
</svg>