<svg width="16" height="17" viewBox="0 0 16 17" fill="none" xmlns="http://www.w3.org/2000/svg">
<path d="M4.65831 16.5458C5.38366 16.5458 5.97168 15.9578 5.97168 15.2324C5.97168 14.5071 5.38366 13.9191 4.65831 13.9191C3.93296 13.9191 3.34494 14.5071 3.34494 15.2324C3.34494 15.9578 3.93296 16.5458 4.65831 16.5458Z" fill="white"/>
<path d="M11.2252 16.5458C11.9505 16.5458 12.5385 15.9578 12.5385 15.2324C12.5385 14.5071 11.9505 13.9191 11.2252 13.9191C10.4998 13.9191 9.91178 14.5071 9.91178 15.2324C9.91178 15.9578 10.4998 16.5458 11.2252 16.5458Z" fill="white"/>
<path d="M15.1653 2.75545H13.8519V1.44208C13.8519 1.26792 13.7827 1.10089 13.6595 0.977739C13.5364 0.854587 13.3694 0.7854 13.1952 0.7854C13.021 0.7854 12.854 0.854587 12.7309 0.977739C12.6077 1.10089 12.5385 1.26792 12.5385 1.44208V2.75545H11.2252C11.051 2.75545 10.884 2.82464 10.7608 2.94779C10.6377 3.07094 10.5685 3.23797 10.5685 3.41214C10.5685 3.5863 10.6377 3.75333 10.7608 3.87648C10.884 3.99963 11.051 4.06882 11.2252 4.06882H12.5385V5.38219C12.5385 5.55635 12.6077 5.72338 12.7309 5.84653C12.854 5.96969 13.021 6.03887 13.1952 6.03887C13.3694 6.03887 13.5364 5.96969 13.6595 5.84653C13.7827 5.72338 13.8519 5.55635 13.8519 5.38219V4.06882H15.1653C15.3394 4.06882 15.5064 3.99963 15.6296 3.87648C15.7528 3.75333 15.8219 3.5863 15.8219 3.41214C15.8219 3.23797 15.7528 3.07094 15.6296 2.94779C15.5064 2.82464 15.3394 2.75545 15.1653 2.75545Z" fill="white"/>
<path d="M14.3582 7.17231C14.2733 7.15642 14.1861 7.15754 14.1016 7.17561C14.0171 7.19368 13.9371 7.22834 13.8661 7.27757C13.7951 7.3268 13.7346 7.38963 13.6881 7.46242C13.6416 7.53521 13.61 7.6165 13.5951 7.7016C13.5132 8.15612 13.2742 8.56743 12.9199 8.86366C12.5656 9.15989 12.1184 9.32222 11.6566 9.32229H3.61944L3.00215 4.06882H8.59842C8.77258 4.06882 8.93961 3.99963 9.06276 3.87648C9.18591 3.75333 9.2551 3.5863 9.2551 3.41214C9.2551 3.23797 9.18591 3.07094 9.06276 2.94779C8.93961 2.82464 8.77258 2.75545 8.59842 2.75545H2.84718L2.8196 2.5243C2.763 2.04531 2.53266 1.60373 2.17223 1.28324C1.81179 0.962741 1.34631 0.785606 0.863991 0.7854H0.718207C0.544044 0.7854 0.377014 0.854587 0.253862 0.977739C0.13071 1.10089 0.0615234 1.26792 0.0615234 1.44208C0.0615234 1.61625 0.13071 1.78328 0.253862 1.90643C0.377014 2.02958 0.544044 2.09877 0.718207 2.09877H0.863991C1.02484 2.09879 1.18008 2.15784 1.30027 2.26472C1.42047 2.3716 1.49726 2.51888 1.51608 2.67862L2.41968 10.3618C2.51348 11.1609 2.8974 11.8977 3.49855 12.4324C4.0997 12.967 4.87624 13.2624 5.68077 13.2624H12.5385C12.7127 13.2624 12.8797 13.1932 13.0029 13.0701C13.126 12.9469 13.1952 12.7799 13.1952 12.6057C13.1952 12.4315 13.126 12.2645 13.0029 12.1414C12.8797 12.0182 12.7127 11.949 12.5385 11.949H5.68077C5.27331 11.9491 4.87585 11.8228 4.54314 11.5876C4.21042 11.3524 3.95883 11.0198 3.82301 10.6357H11.6566C12.4263 10.6357 13.1716 10.3654 13.7623 9.87182C14.3529 9.37826 14.7514 8.69287 14.8881 7.93538C14.9035 7.85047 14.9019 7.76338 14.8836 7.67907C14.8653 7.59476 14.8305 7.51489 14.7813 7.44403C14.7321 7.37316 14.6694 7.31269 14.5968 7.26607C14.5242 7.21945 14.4431 7.18759 14.3582 7.17231Z" fill="white"/>
</svg>
