<svg width="32" height="32" viewBox="0 0 32 32" fill="none" xmlns="http://www.w3.org/2000/svg">
<rect x="0.386963" y="0.27832" width="31.5144" height="31.5144" rx="15.7572" fill="#40484D"/>
<path d="M23.2347 16.0356C23.2347 19.9526 20.061 23.1263 16.144 23.1263C15.412 23.1263 14.7087 23.0148 14.0453 22.8089C14.3341 22.3372 14.7658 21.5652 14.926 20.9505C15.0117 20.6188 15.3663 19.2636 15.3663 19.2636C15.5979 19.7039 16.2726 20.0784 16.9903 20.0784C19.1289 20.0784 20.67 18.1113 20.67 15.6667C20.67 13.3251 18.7573 11.5724 16.2984 11.5724C13.2391 11.5724 11.6122 13.6253 11.6122 15.864C11.6122 16.9048 12.1669 18.2 13.0503 18.6117C13.1847 18.6746 13.2562 18.646 13.2877 18.5173C13.3105 18.4201 13.4306 17.9369 13.4849 17.7139C13.5021 17.6424 13.4935 17.5795 13.4363 17.5109C13.1476 17.1535 12.9131 16.5016 12.9131 15.8926C12.9131 14.3286 14.0968 12.8161 16.1154 12.8161C17.8566 12.8161 19.0775 14.0027 19.0775 15.701C19.0775 17.6196 18.1082 18.9491 16.8473 18.9491C16.1525 18.9491 15.6293 18.3744 15.798 17.6682C15.9982 16.8247 16.3841 15.9155 16.3841 15.3065C16.3841 14.7632 16.0925 14.3086 15.4864 14.3086C14.7744 14.3086 14.2026 15.0434 14.2026 16.0299C14.2026 16.6589 14.4142 17.082 14.4142 17.082C14.4142 17.082 13.7137 20.0498 13.585 20.6045C13.4421 21.2164 13.4992 22.0799 13.5593 22.6403C10.9231 21.6081 9.05322 19.0406 9.05322 16.0356C9.05322 12.1185 12.2269 8.94482 16.144 8.94482C20.061 8.94482 23.2347 12.1185 23.2347 16.0356Z" fill="white"/>
</svg>
