<svg width="20" height="20" viewBox="0 0 20 20" fill="none" xmlns="http://www.w3.org/2000/svg">
<path d="M16.6685 12.2527L14.6116 10.4508C14.5542 10.3973 14.4852 10.3545 14.4086 10.3248C14.332 10.2952 14.2494 10.2793 14.1656 10.2781C14.0819 10.277 13.9988 10.2906 13.9211 10.3182C13.8435 10.3457 13.773 10.3867 13.7138 10.4386C13.6546 10.4905 13.6079 10.5523 13.5765 10.6203C13.5451 10.6883 13.5296 10.7611 13.531 10.8345C13.5324 10.9079 13.5505 10.9802 13.5845 11.0473C13.6184 11.1144 13.6673 11.1748 13.7284 11.225L15.1597 12.481C14.3816 12.4826 13.6111 12.3477 12.8934 12.0845C12.1757 11.8212 11.5255 11.4347 10.9808 10.948C10.9204 10.8992 10.8493 10.8615 10.7719 10.8372C10.6945 10.813 10.6123 10.8026 10.5303 10.8067C10.4482 10.8107 10.3679 10.8292 10.2941 10.861C10.2203 10.8928 10.1546 10.9373 10.1008 10.9918L10.0927 11.0027C9.98762 11.1098 9.93383 11.2483 9.94257 11.3893C9.9513 11.5303 10.0219 11.6629 10.1396 11.7594C10.7957 12.3407 11.5782 12.801 12.4407 13.113C13.3032 13.425 14.2284 13.5825 15.1616 13.5761L13.7284 14.8316C13.6631 14.8808 13.6101 14.9413 13.5728 15.0093C13.5354 15.0773 13.5145 15.1513 13.5114 15.2267C13.5082 15.3021 13.5229 15.3773 13.5545 15.4475C13.5861 15.5177 13.6339 15.5814 13.695 15.6347C13.756 15.6879 13.8289 15.7295 13.9092 15.7569C13.9895 15.7843 14.0754 15.7968 14.1614 15.7938C14.2475 15.7907 14.3319 15.7721 14.4094 15.7391C14.4868 15.7061 14.5557 15.6594 14.6116 15.602L16.6685 13.8C16.9024 13.5947 17.0338 13.3165 17.0338 13.0264C17.0338 12.7363 16.9024 12.458 16.6685 12.2527Z" fill="#272E32"/>
<path d="M15.2635 6.61528L13.9098 7.91926C13.8983 7.93424 13.8876 7.94983 13.8779 7.96595C13.7825 8.07798 13.7355 8.22104 13.7465 8.36555C13.7575 8.51006 13.8258 8.64496 13.9371 8.74236C14.0485 8.83976 14.1944 8.89222 14.3448 8.88888C14.4952 8.88554 14.6385 8.82666 14.7451 8.72442L15.7535 7.75412L16.691 6.85159C16.8495 6.69771 16.9591 6.50345 17.0069 6.29163C17.0548 6.07981 17.0389 5.85923 16.9611 5.65581C16.9037 5.5001 16.8112 5.35855 16.6904 5.24127L14.7451 3.36959C14.6911 3.31311 14.6258 3.26772 14.5532 3.23616C14.4805 3.20459 14.402 3.1875 14.3224 3.18591C14.2427 3.18432 14.1635 3.19827 14.0896 3.22691C14.0157 3.25555 13.9485 3.29829 13.8921 3.35257C13.8358 3.40685 13.7914 3.47154 13.7617 3.54276C13.732 3.61398 13.7175 3.69026 13.7191 3.76701C13.7208 3.84375 13.7385 3.91938 13.7713 3.98936C13.8041 4.05933 13.8512 4.1222 13.9098 4.17418L15.2652 5.47929C12.3493 5.48613 10.7509 7.00192 9.30155 8.5963C7.97037 7.14883 6.39271 5.70421 3.72504 5.50264L3.44072 5.47645C3.28395 5.47645 3.13359 5.53644 3.02274 5.64322C2.91189 5.75001 2.84961 5.89485 2.84961 6.04587C2.85264 6.19597 2.91588 6.33912 3.02609 6.44528C3.13629 6.55144 3.28489 6.61237 3.44072 6.61528C3.48328 6.61528 3.61036 6.63408 3.61036 6.63408C5.91332 6.80205 7.23504 8.05136 8.52069 9.46238C7.24272 10.8666 5.92987 12.1387 3.64583 12.2867L3.40939 12.2987C3.25379 12.308 3.10843 12.3765 3.00528 12.4892C2.90213 12.6018 2.84964 12.7492 2.85936 12.8991C2.86908 13.049 2.94021 13.189 3.05711 13.2884C3.17401 13.3878 3.32709 13.4383 3.48269 13.429C3.5749 13.425 3.72504 13.4216 3.79893 13.4159C6.76629 13.1955 8.37587 11.366 9.81108 9.76645C11.2605 8.15272 12.6295 6.62553 15.2635 6.61528Z" fill="#272E32"/>
</svg>
