<svg width="32" height="33" viewBox="0 0 32 33" fill="none" xmlns="http://www.w3.org/2000/svg">
<rect x="0.386963" y="0.610596" width="31.5144" height="31.5144" rx="15.7572" fill="#40484D"/>
<path d="M20.0834 13.9624C19.7935 14.0885 19.4823 14.1751 19.1553 14.213C19.4894 14.016 19.7447 13.704 19.866 13.3329C19.5477 13.5184 19.2003 13.6489 18.8386 13.719C18.6865 13.5595 18.5034 13.4327 18.3006 13.3462C18.0979 13.2598 17.8796 13.2156 17.6592 13.2163C16.7665 13.2163 16.0433 13.9293 16.0433 14.8078C16.0433 14.9323 16.0575 15.0536 16.085 15.1702C15.4448 15.1398 14.8179 14.9763 14.2443 14.69C13.6708 14.4038 13.1632 14.0012 12.754 13.5078C12.6102 13.7498 12.5346 14.0261 12.5349 14.3075C12.5349 14.859 12.8209 15.3475 13.2543 15.6319C12.9978 15.6238 12.7468 15.5556 12.5216 15.4326V15.4523C12.524 15.8221 12.6545 16.1797 12.891 16.4642C13.1274 16.7486 13.4552 16.9423 13.8184 17.0122C13.5799 17.0753 13.3304 17.0844 13.088 17.039C13.1937 17.3572 13.3958 17.6346 13.6663 17.8327C13.9368 18.0308 14.2623 18.1397 14.5976 18.1444C14.0224 18.5876 13.3162 18.827 12.5901 18.8251C12.4601 18.8251 12.3317 18.8172 12.2048 18.803C12.9458 19.272 13.8049 19.5204 14.6819 19.5192C17.6553 19.5192 19.2806 17.0942 19.2806 14.9906L19.2751 14.7842C19.592 14.5614 19.8659 14.283 20.0834 13.9624V13.9624Z" fill="white"/>
<path d="M16.144 22.0404C17.6484 22.0404 19.0913 21.4428 20.1551 20.379C21.2189 19.3152 21.8166 17.8723 21.8166 16.3678C21.8166 14.8634 21.2189 13.4205 20.1551 12.3567C19.0913 11.2929 17.6484 10.6952 16.144 10.6952C14.6395 10.6952 13.1967 11.2929 12.1328 12.3567C11.069 13.4205 10.4714 14.8634 10.4714 16.3678C10.4714 17.8723 11.069 19.3152 12.1328 20.379C13.1967 21.4428 14.6395 22.0404 16.144 22.0404V22.0404ZM16.144 23.4586C12.2278 23.4586 9.05322 20.2841 9.05322 16.3678C9.05322 12.4516 12.2278 9.2771 16.144 9.2771C20.0602 9.2771 23.2347 12.4516 23.2347 16.3678C23.2347 20.2841 20.0602 23.4586 16.144 23.4586Z" fill="white"/>
</svg>
