<svg xmlns="http://www.w3.org/2000/svg" fill="none" viewBox="0 0 65 64">
  <path fill="#fff" d="M44.101 43.287a.754.754 0 0 1-.609-.325.725.725 0 0 1-.106-.55 9.37 9.37 0 0 0 .178-1.822 9.456 9.456 0 0 0-1.526-5.13.73.73 0 0 1 .485-1.114.728.728 0 0 1 .744.324 10.82 10.82 0 0 1 1.561 8.03.73.73 0 0 1-.727.587ZM20.877 44.71a.727.727 0 0 1-.687-.483 10.701 10.701 0 0 1-.625-3.644 10.927 10.927 0 0 1 1.758-5.931.732.732 0 0 1 1.351.227.73.73 0 0 1-.124.563 9.481 9.481 0 0 0-1.524 5.129c0 1.074.184 2.14.547 3.15a.727.727 0 0 1-.44.937.689.689 0 0 1-.256.053Z"/>
  <path fill="#fff" d="M29.106 38.882a1.349 1.349 0 0 1-1.34-1.236l-.286-3.394-5.114 1.498a1.224 1.224 0 0 1-1.424-1.748 12.75 12.75 0 0 1 11.355-6.709 13.113 13.113 0 0 1 4.48.78.73.73 0 0 1-.497 1.374 11.714 11.714 0 0 0-3.983-.693 11.32 11.32 0 0 0-9.784 5.432l4.557-1.333a1.462 1.462 0 0 1 1.874 1.277l.265 3.122 2.092-2.532a1.301 1.301 0 0 1 2.01 0l2.092 2.532.265-3.122a1.454 1.454 0 0 1 1.874-1.277l4.558 1.333a10.893 10.893 0 0 0-2.217-2.638.733.733 0 0 1-.087-1.043.731.731 0 0 1 1.046-.059 12.283 12.283 0 0 1 2.787 3.556 1.224 1.224 0 0 1-1.423 1.748l-5.114-1.495-.287 3.39a1.348 1.348 0 0 1-2.382.747l-2.145-2.6-2.145 2.6a1.347 1.347 0 0 1-1.027.49Z"/>
  <path fill="#fff" d="M32.29 28.754h-.112a.729.729 0 0 1-.624-.833c.312-1.917-.553-3.076-2.526-3.435a.732.732 0 0 1-.025-1.44.73.73 0 0 1 .29.004c2.735.506 4.118 2.414 3.703 5.102a.733.733 0 0 1-.705.602ZM54.029 50.717a.73.73 0 0 1-.294-1.402 17.287 17.287 0 0 0 6.441-4.851.219.219 0 0 0 .031-.237l-.914-2.098a18.838 18.838 0 0 1-10.225 5.963.732.732 0 0 1-.312-1.43 17.367 17.367 0 0 0 9.513-5.595 1.368 1.368 0 0 1 1.248-.459 1.352 1.352 0 0 1 1.046.806l.974 2.226a1.69 1.69 0 0 1-.243 1.754 18.8 18.8 0 0 1-6.975 5.248.694.694 0 0 1-.29.075ZM59.318 63.442a1.365 1.365 0 0 1-1.037-.474 17.367 17.367 0 0 0-9.513-5.595.732.732 0 1 1 .313-1.43 18.838 18.838 0 0 1 10.224 5.963l.915-2.098a.218.218 0 0 0-.031-.237 17.338 17.338 0 0 0-6.454-4.87.728.728 0 1 1 .581-1.336 18.77 18.77 0 0 1 6.987 5.26 1.686 1.686 0 0 1 .244 1.752l-.974 2.229a1.352 1.352 0 0 1-1.046.805 1.182 1.182 0 0 1-.21.031Z"/>
  <path fill="#fff" d="M63.263 54.776H49.798a.73.73 0 1 1 0-1.461h13.465a.283.283 0 0 0 .285-.284V51a.285.285 0 0 0-.285-.284H49.798a.73.73 0 0 1 0-1.46h13.465A1.748 1.748 0 0 1 65.01 51v2.03a1.749 1.749 0 0 1-1.746 1.745ZM8.523 57.473a.72.72 0 0 1-.24-.04C2.832 55.54.293 53.816.293 52.015c0-1.873 2.729-3.653 8.586-5.62a.73.73 0 1 1 .465 1.386c-.777.26-7.59 2.595-7.59 4.234 0 .165.197 1.673 7.01 4.037a.73.73 0 0 1-.241 1.42Z"/>
  <path fill="#fff" d="M39.627 63.243c-5.392 0-15.01-1.443-23.393-3.51a.731.731 0 1 1 .35-1.417c8.28 2.042 17.755 3.465 23.043 3.465a9.766 9.766 0 0 0 0-19.53c-5.554 0-15.735 1.58-24.208 3.746a.73.73 0 0 1-.365-1.414c8.717-2.242 18.823-3.806 24.573-3.806a11.24 11.24 0 0 1 0 22.453v.013Z"/>
  <path fill="#fff" d="M28.825 62.225a.727.727 0 0 1-.727-.73v-4.2a.731.731 0 1 1 1.457 0v4.2a.73.73 0 0 1-.73.73ZM34.688 48.77a.726.726 0 0 1-.727-.731v-6.244a.73.73 0 1 1 1.458 0v6.244a.73.73 0 0 1-.73.73ZM7.955 17.933a.73.73 0 0 1-.718-.605A32.624 32.624 0 0 0 3.078 6.123a1.701 1.701 0 0 1 .375-2.185l3.25-2.732a1.717 1.717 0 0 1 2.06-.108c.205.138.376.319.503.53a40.274 40.274 0 0 1 5.351 13.758.732.732 0 0 1-1.436.272 38.868 38.868 0 0 0-5.16-13.275.253.253 0 0 0-.172-.112.244.244 0 0 0-.206.056l-3.25 2.735a.25.25 0 0 0-.057.312 34.05 34.05 0 0 1 4.34 11.695.73.73 0 0 1-.593.843.591.591 0 0 1-.128.021Z"/>
  <path fill="#fff" d="M14.411 35.304h-.069a.73.73 0 0 1-.658-.796c.77-8.06 2.71-13.621 6.696-19.19a.253.253 0 0 0-.028-.313l-2.913-2.94a.25.25 0 0 0-.2-.073.243.243 0 0 0-.18.097A38.088 38.088 0 0 0 11.5 22.482a.73.73 0 1 1-1.38-.477 39.438 39.438 0 0 1 5.764-10.78 1.695 1.695 0 0 1 1.249-.69 1.72 1.72 0 0 1 1.342.502l2.913 2.94a1.708 1.708 0 0 1 .178 2.186c-3.825 5.342-5.685 10.696-6.428 18.482a.728.728 0 0 1-.728.66Z"/>
  <path fill="#fff" d="M12.148 63.242h-.166c-2.123-.04-3.818-.78-4.539-1.979-.25-.412-.506-1.249.119-3.63.543-2.063.82-4.187.827-6.32v-2.597a99.533 99.533 0 0 0-.53-11.22.73.73 0 1 1 1.451-.166c.393 3.782.573 7.584.54 11.386v2.597a26.571 26.571 0 0 1-.877 6.688c-.534 2.05-.281 2.497-.278 2.497.446.743 1.745 1.249 3.316 1.27 1.685.038 3.175-.486 3.702-1.292 0 0 .256-.45-.271-2.466a26.534 26.534 0 0 1-.9-6.762v-2.544c0-8.508-.624-14.605-2.041-19.772a38.437 38.437 0 0 0-6.485-13.234.25.25 0 0 0-.38-.025L2.644 18.69A.25.25 0 0 0 2.62 19c3 4.114 5.049 8.843 5.997 13.846a.73.73 0 1 1-1.43.287A32.974 32.974 0 0 0 1.433 19.85a1.705 1.705 0 0 1 .175-2.185l2.99-3.016a1.71 1.71 0 0 1 2.592.184 40.336 40.336 0 0 1 6.719 13.718c1.448 5.308 2.094 11.514 2.094 20.156v2.56c.009 2.157.294 4.305.85 6.39.624 2.407.35 3.228.084 3.637-.95 1.436-3.063 1.948-4.79 1.948Z"/>
  <path fill="#fff" d="M15.263 47.745a.712.712 0 0 1-.387-.112l-6.244-3.928a.735.735 0 0 1 .774-1.248l6.244 3.927a.73.73 0 0 1-.39 1.349l.003.012ZM19.022 48.77a.73.73 0 0 1-.73-.731v-3.64a.73.73 0 0 1 1.46 0v3.655a.73.73 0 0 1-.73.715Z"/>
</svg>
